<svg xmlns="http://www.w3.org/2000/svg" width="256" height="256"><path fill="#1976D2" fill-opacity=".016" fill-rule="evenodd" d="M0 128.004v128.004l128.25-.254 128.25-.254.254-127.75L257.008 0H0zm.485.496c0 70.4.119 99.053.265 63.672s.146-92.98 0-128S.485 58.1.485 128.5"/><path fill="#1976D2" fill-opacity=".171" fill-rule="evenodd" d="M104.5 53.104c-8.25.443-19.95 1.504-26 2.358-14.73 2.079-16.411 2.365-17.358 2.95-.445.276-2.122.729-3.726 1.007-14.767 2.559-20.788 3.849-32.885 7.044-7.683 2.03-14.319 3.906-14.747 4.17s-1.734.665-2.905.89c-1.17.226-3.197 1.111-4.503 1.967C.104 74.978 0 75.548 0 86.466 0 96.96.172 98.007 2.115 99.368c1.163.815 2.625 1.284 3.25 1.044.821-.317 1.05 3.207.827 12.729-.196 8.412.112 14.178.854 15.97 1.135 2.741 20.131 21.811 20.785 20.867.182-.263.857.465 1.5 1.618s2.88 3.582 4.971 5.4l3.803 3.303 11.197-2.668c13.517-3.22 14.315-3.24 15.785-.381 2.654 5.159 6.436 7.738 18.036 12.298l11.856 4.661 1.07 4.146c.589 2.28 1.332 5.045 1.652 6.145.979 3.365 13.525 15.28 16.813 15.968 1.642.343 5.626 1.365 8.852 2.271 5.474 1.538 6.185 1.535 10.634-.046 2.623-.931 5.75-1.693 6.95-1.693 3.335 0 5.987-1.741 12.788-8.396 4.543-4.446 6.402-7.055 6.845-9.604 1.568-9.041 1.993-9.503 12.349-13.425 9.453-3.58 14.706-7.209 18.178-12.559l1.611-2.481 10.389 2.393c5.715 1.317 11.525 2.582 12.912 2.813 2.127.353 4.945-1.933 18-14.598l15.478-15.017.322-15.077c.178-8.293.709-14.839 1.181-14.547s2.015-.541 3.428-1.85C256.893 96.37 257 95.808 257 85.135c0-6.124-.337-11.064-.75-10.976-.791.167-1.974-.236-9.25-3.155-8.153-3.27-41.346-11.652-54-13.637-31.099-4.877-55.314-6.044-88.5-4.263M117 75v11h5V64h-5zm14.599-8.25c-.964 4.73-2.584 15.669-2.591 17.5-.01 2.127 3.533 2.387 4.328.318.302-.788.858-4.163 1.236-7.5.377-3.338 1.026-6.068 1.441-6.068s1.065 2.906 1.445 6.457c.741 6.912 2.307 13.405 2.456 10.176.063-1.359.63-1.724 2.086-1.343 2.416.632 2.391 1.549.316-11.54L140.612 64h-4.226c-3.809 0-4.283.272-4.787 2.75M102 75.5V86h2.5c2.333 0 2.5-.333 2.5-5 0-2.75.365-5 .811-5s1.388 2.25 2.092 5c.975 3.805 1.738 5 3.189 5 2.285 0 2.354-1.098.479-7.568a440 440 0 0 1-2.539-9.182c-1.069-4.098-1.251-4.25-5.071-4.25H102zm49.204 8.25c.111 10.313.355 15.037.54 10.5.295-7.217.567-8.25 2.174-8.25 1.585 0 1.767-.616 1.329-4.5-.705-6.256 1.325-5.786 2.159.5.541 4.079 1.025 5 2.628 5 2.337 0 2.338-.024.452-11.5-.813-4.95-1.48-9.338-1.482-9.75S157.2 65 155 65h-4zM81.75 66.716l-2.75.417v21.564l5.75-.909c3.162-.5 6.749-.722 7.97-.493s1.982.032 1.692-.438c-.29-.469.173-1.854 1.03-3.078 2.306-3.292 2.127-13.954-.271-16.124-1.776-1.608-6.721-1.954-13.421-.939m87.153-.583c-.054.202-.868 4.979-1.81 10.617-1.309 7.833-1.424 10.25-.486 10.25.674 0 1.429.563 1.676 1.25.248.688.786-1.332 1.197-4.489.847-6.5 2.852-6.847 2.346-.405-.305 3.871-.145 4.165 2.424 4.46l2.75.317V77.566c0-9.391-.195-10.568-1.75-10.58-.963-.007-2.762-.285-4-.616-1.238-.332-2.294-.438-2.347-.237M69.193 84.75c.106 9.213.352 13.938.547 10.5.258-4.532.742-6.25 1.76-6.25s1.502 1.718 1.76 6.25c.195 3.438.441-1.287.547-10.5L74 68h-5zm113.015 3c.114 10.862.356 15.563.538 10.445.293-8.245.526-9.244 2.042-8.765.942.298 3.849.94 6.462 1.427 4.574.852 4.75.798 4.75-1.474 0-1.979-.644-2.462-4-2.999l-4-.64V73.856l5.586.698c5.467.683 5.579.647 5.25-1.674-.293-2.065-1.176-2.527-6.836-3.579-11.088-2.06-10.029-4.055-9.792 18.449M57.25 70.662c-.888.358-1.25 3.524-1.25 10.921 0 5.73.196 10.417.435 10.417s1.611-.447 3.049-.994c2.596-.987 2.613-1.064 2.442-11-.179-10.377-.504-11.027-4.676-9.344M85 77.906c0 6.659.081 6.887 2.25 6.356 3.756-.92 4.75-2.318 4.75-6.684C92 72.868 90.665 71 87.3 71c-2.178 0-2.3.366-2.3 6.906m118 4.2c0 10.155.133 10.894 1.961 10.894 1.773 0 1.993.838 2.294 8.75.251 6.566.385 5.303.539-5.059.133-8.902.561-13.589 1.206-13.191.55.34 1.003 1.379 1.006 2.309.011 3.493 2.122 9.23 3.16 8.588.582-.359 1.496-.033 2.033.725 1.116 1.578 1.102 1.499-2.287-12.556l-2.269-9.413-3.821-.97-3.822-.97zM38.763 74.565c-4.903 2.661-5.783 5.922-5.57 20.635.106 7.315.351 10.516.546 7.114.313-5.487.603-6.222 2.557-6.5 2.015-.287 2.23-.953 2.502-7.769C39.109 80.252 40.055 78 43.015 78c2.582 0 2.964 1.843 3.178 15.332.106 6.729.351 9.375.547 5.918.308-5.411.617-6.25 2.308-6.25 1.78 0 1.952-.735 1.952-8.345 0-6.815-.335-8.649-1.829-10-2.246-2.033-6.756-2.072-10.408-.09M.382 86.5c.002 6.6.164 9.17.359 5.711.196-3.459.195-8.859-.003-12S.38 79.9.382 86.5M218 85.43c0 9.903.126 10.57 2 10.57 1.86 0 2-.667 2-9.5 0-5.225.113-9.838.25-10.25s-.762-.894-2-1.07c-2.212-.314-2.25-.139-2.25 10.25M26.5 77.52c-.55.199-4.262 1.308-8.25 2.463-6.389 1.852-7.25 2.385-7.25 4.49 0 2.217.231 2.321 3.243 1.457 1.784-.511 3.359-.93 3.5-.93s.351 7.763.466 17.25c.136 11.186.325 13.786.538 7.397.29-8.728.548-9.911 2.25-10.357 1.651-.431 1.964-1.583 2.213-8.146l.29-7.644 3.25-.957c2.444-.719 3.25-1.526 3.25-3.25 0-2.129-1.049-2.661-3.5-1.773M226 79.214c0 1.814.765 2.598 3.25 3.329l3.25.957.29 7.644c.247 6.493.573 7.718 2.165 8.134 1.032.27 2.077 1.555 2.324 2.856s.51-2.022.585-7.384.251-9.75.393-9.75c.141 0 1.716.419 3.5.93 3.012.864 3.243.76 3.243-1.46 0-2.06-.862-2.654-6.25-4.307-3.437-1.055-7.713-2.234-9.5-2.62-2.951-.637-3.25-.483-3.25 1.671m-60.921 11.369c.048 1.165.285 1.402.604.605.289-.722.253-1.585-.079-1.917s-.568.258-.525 1.312m-6 1c.048 1.165.285 1.402.604.605.289-.722.253-1.585-.079-1.917s-.568.258-.525 1.312m3 0c.048 1.165.285 1.402.604.605.289-.722.253-1.585-.079-1.917s-.568.258-.525 1.312M92.31 97.5c.005 3.3.192 4.529.415 2.732s.218-4.497-.01-6c-.229-1.503-.411-.032-.405 3.268m74.848-3.5c0 1.375.227 1.938.504 1.25.278-.687.278-1.812 0-2.5-.277-.687-.504-.125-.504 1.25M56.3 98c0 3.025.187 4.263.416 2.75s.229-3.987 0-5.5-.416-.275-.416 2.75m77.45-2.338c.688.278 1.813.278 2.5 0 .688-.277.125-.504-1.25-.504s-1.937.227-1.25.504m26.329 2.921c.048 1.165.285 1.402.604.605.289-.722.253-1.585-.079-1.917s-.568.258-.525 1.312m-19 2c.048 1.165.285 1.402.604.605.289-.722.253-1.585-.079-1.917s-.568.258-.525 1.312m25 0c.048 1.165.285 1.402.604.605.289-.722.253-1.585-.079-1.917s-.568.258-.525 1.312m-116 4c.048 1.165.285 1.402.604.605.289-.722.253-1.585-.079-1.917s-.568.258-.525 1.312m53.671-.921c.688.278 1.813.278 2.5 0 .688-.277.125-.504-1.25-.504s-1.937.227-1.25.504m39.519.031c.973.254 2.323.237 3-.037s-.119-.481-1.769-.461-2.204.244-1.231.498m-50.519.969c.688.278 1.813.278 2.5 0 .688-.277.125-.504-1.25-.504s-1.937.227-1.25.504m99.063.021c.721.289 1.584.253 1.916-.079s-.258-.568-1.312-.525c-1.165.048-1.402.285-.604.604m5 1c.721.289 1.584.253 1.916-.079s-.258-.568-1.312-.525c-1.165.048-1.402.285-.604.604M237.336 112c0 4.125.177 5.813.392 3.75s.216-5.437 0-7.5c-.215-2.062-.392-.375-.392 3.75m-50.523-4.317c.721.289 1.584.253 1.916-.079s-.258-.568-1.312-.525c-1.165.048-1.402.285-.604.604"/><path fill="#1976D2" fill-opacity=".298" fill-rule="evenodd" d="M93 58.527c-15.737 1.516-38.726 5.038-42.669 6.537-1.354.515-3.815.936-5.47.936-3.699 0-37.653 9.583-39.56 11.165-1.01.838-1.3 3.3-1.089 9.239L4.5 94.5l3.25-.01 3.25-.009v34.266l13.52 13.127C34.681 151.739 38.673 155 40.589 155c1.402 0 6.905-1.076 12.23-2.391C69.52 148.483 68 148.547 68 151.965c0 5.143 4.271 8.547 17.5 13.951 10.471 4.277 12.217 5.327 13.702 8.243.936 1.837 1.724 4.601 1.75 6.141.035 2.06 1.751 4.546 6.487 9.4 5.302 5.434 7.199 6.73 10.75 7.342 2.371.409 5.773 1.34 7.561 2.07 2.7 1.102 3.8 1.102 6.5 0 1.787-.73 5.154-1.655 7.48-2.058 3.443-.595 5.445-1.963 10.75-7.348 5.03-5.104 6.52-7.284 6.52-9.539 0-1.607.65-4.479 1.445-6.38 1.307-3.129 2.545-3.914 13.019-8.25C184.04 160.329 188 157.064 188 151.904c0-3.346-1.5-3.416 15.181.705 5.325 1.315 10.828 2.391 12.23 2.391 1.916 0 5.908-3.261 16.069-13.126L245 128.747V94.481l3.25.009 3.25.01.288-8.096c.206-5.795-.089-8.409-1.038-9.196-4.552-3.778-52.332-14.666-77.75-17.717-18.719-2.247-61.344-2.761-80-.964m9.667 6.14c-.367.366-.667 9.639-.667 20.607 0 17.772.172 19.874 1.582 19.333.87-.334 2.22-.607 3-.607 1.152 0 1.431-2.58 1.488-13.75l.07-13.75 3.778 13.5c3.775 13.487 3.781 13.5 6.93 13.813l3.152.314V64h-5v11.667c0 6.416-.242 11.424-.538 11.129-.295-.296-1.659-4.758-3.03-9.917s-2.734-10.166-3.029-11.129c-.369-1.2-1.565-1.75-3.804-1.75-1.796 0-3.566.3-3.932.667m28.849.583c-.232.688-1.702 9.688-3.267 20L125.404 104h2.798c2.161 0 2.798-.47 2.798-2.066 0-4.075 1.725-5.803 5.239-5.25 3.631.571 4.723 1.737 4.746 5.066.012 1.83.575 2.25 3.015 2.25 1.65 0 2.998-.338 2.995-.75s-1.353-9.255-3-19.65S141 64.543 141 64.35c0-1.045-9.12-.18-9.484.9m18.805.04c-.307.496-.23 9.634.17 20.306l.728 19.404h2.361c2.35 0 2.363-.069 2.641-13.25l.279-13.25 1.937 12.244c1.066 6.734 2.211 12.686 2.544 13.225.334.54 1.691 1.105 3.017 1.256 2.335.266 2.479-.118 4.592-12.225l2.182-12.5.114 12.633c.11 12.211.189 12.654 2.364 13.237 1.238.331 2.588.609 3 .616s.75-8.934.75-19.869c0-19.775-.012-19.887-2.25-20.487-5.938-1.591-6.429-1.153-7.61 6.785-.606 4.078-1.399 9.94-1.762 13.028-.363 3.087-.965 5.802-1.337 6.032-.373.23-1.497-5.37-2.499-12.445-1.001-7.075-2.096-13.293-2.432-13.818-.825-1.29-8.09-2.053-8.789-.922M80.75 66.689C79.157 67.106 79 68.942 79 87.19v20.043l2.25-.603c1.237-.331 2.588-.609 3-.616s.75-3.566.75-7.907c0-6.275.324-8.017 1.582-8.5 2.117-.812 2.054-.828 3.847.964 1.102 1.103 1.571 3.49 1.571 8V105h6.212l-.362-7.97c-.266-5.854-.82-8.428-2.086-9.694-1.566-1.567-1.581-1.881-.159-3.452 3.161-3.493 3.057-13.079-.178-16.314-1.519-1.519-10.234-2.042-14.677-.881M69 84.309c0 17.267-.704 20.279-4.566 19.537-1.807-.347-1.952-1.472-2.208-17.109L61.952 70H56v17.845c0 15.743.206 18.026 1.75 19.382 2.848 2.501 5.883 2.953 9.546 1.423C73.583 106.023 74 104.568 74 85.277V68h-5zm113 3.562v19.871l5.25.664c2.887.365 6.713.923 8.5 1.24 2.965.526 3.25.354 3.25-1.964 0-2.274-.576-2.66-5.5-3.682l-5.5-1.142V90.877l4.5.675c4.35.653 4.5.589 4.5-1.919 0-2.584-.674-2.984-6.5-3.854-1.693-.253-2.046-1.187-2.302-6.094l-.301-5.795 3.801.642c2.091.354 4.589.859 5.552 1.123 1.381.379 1.75-.145 1.75-2.485 0-2.858-.228-3.004-6.332-4.067C180.875 67.049 182 65.069 182 87.871M86.25 71.662c-.802.324-1.25 2.624-1.25 6.421 0 5.622.123 5.917 2.465 5.917C90.241 84 92 81.479 92 77.5c0-5.023-2.21-7.266-5.75-5.838M203 90.914c0 19.314.066 19.972 2.075 20.61 1.142.362 2.229.505 2.417.317s.492-6.079.675-13.091.593-12.749.91-12.749c.318-.001 2.092 6.269 3.942 13.933 2.821 11.681 3.698 14.023 5.423 14.486 4.648 1.248 4.558 1.628 4.558-19.303V75.233l-2.579-.493c-3.423-.654-3.676.29-3.266 12.18.19 5.491.067 9.668-.272 9.282-.34-.386-1.863-5.802-3.385-12.035-1.523-6.234-3.27-11.483-3.883-11.667s-2.353-.604-3.865-.936l-2.75-.602zM36.4 76.4 33 79.8v14.877c0 18.12.694 19.843 7.678 19.056C49.59 112.728 52 107.886 52 90.982 52 75.414 50.976 73 44.374 73c-3.869 0-5.098.524-7.974 3.4m98.237 1.85c-.351 2.888-.922 6.938-1.269 9-.621 3.696-.582 3.75 2.632 3.75s3.253-.054 2.632-3.75c-.347-2.062-.918-6.112-1.269-9S136.399 73 136 73s-1.012 2.362-1.363 5.25M20.5 78.846c-8.248 2.432-9.026 2.879-9.311 5.351-.297 2.572-.146 2.67 3.25 2.119L18 85.738v34.158l3-1.046 3-1.046V83.25l3-.6c2.54-.508 3-1.064 3-3.625 0-1.664-.113-2.982-.25-2.929s-4.3 1.291-9.25 2.75m205.5.256c0 2.476.481 3.044 3 3.548l3 .6v34.554l3 1.046 3 1.046V85.738l3.5.568c3.206.521 3.5.361 3.5-1.894 0-2.744-.602-3.062-11.75-6.211L226 76.154zM40.75 79.08c-1.533.893-1.75 2.734-1.75 14.863 0 11.474.261 13.943 1.523 14.427.838.322 2.411-.304 3.5-1.393C45.764 105.236 46 103.622 46 93.434c0-10.552-.892-15.484-2.785-15.404-.393.017-1.503.489-2.465 1.05M100 114.595c-1.925.21-9.408 1.109-16.628 1.998l-13.129 1.615-.621 4.536c-.342 2.494-.622 6.533-.622 8.975 0 4.315.077 4.424 2.75 3.87 26.921-5.577 85.743-5.56 112.657.035l2.906.604-.617-8.741c-.339-4.808-.747-8.866-.906-9.019s-5.915-1.056-12.79-2.007c-11.773-1.63-63.149-2.943-73-1.866m26.25 2.125c-.744.266-1.25 2.235-1.25 4.863 0 3.565.343 4.417 1.776 4.417 1.45 0 1.761-.823 1.693-4.474-.093-4.9-.356-5.471-2.219-4.806m5 .008c-.741.26-1.25 2.209-1.25 4.788 0 3.361.422 4.483 1.859 4.939 3.594 1.141 5.141-.383 5.141-5.062 0-2.416-.338-4.427-.75-4.47a37 37 0 0 1-2.25-.354c-.825-.154-2.062-.082-2.75.159M106 122c0 5.07 1.501 6.869 2.294 2.75l.434-2.25.136 2.25c.147 2.433 2.136 3.186 2.136.809 0-.793.408-1.693.907-2.001.498-.309.671.34.383 1.441-.385 1.474-.031 2.001 1.343 2.001 1.574 0 1.867-.786 1.867-5 0-4.095-.317-5-1.75-5-.963 0-1.75.675-1.75 1.5s-.45 1.5-1 1.5-1-.675-1-1.5c0-.833-.889-1.5-2-1.5-1.733 0-2 .667-2 5m11.195-.25c.22 3.42.725 4.75 1.805 4.75.829 0 1.501-.888 1.502-1.987.001-1.095.786-2.137 1.75-2.323 1.091-.21 1.748-1.248 1.748-2.763 0-2.114-.458-2.427-3.555-2.427h-3.555zm21 0c.168 2.612.755 4.617 1.305 4.455.55-.163.873-1.288.717-2.5-.254-1.983-.105-1.927 1.482.545.97 1.513 2.067 2.75 2.436 2.75.37 0 .828-2.25 1.018-5.001.244-3.518-.023-5-.903-5-.687.001-1.264.788-1.28 1.751-.029 1.667-.079 1.667-1.05 0-.561-.963-1.697-1.75-2.524-1.75-1.172 0-1.438 1.052-1.201 4.75m8.255-2.593c-.504 1.588-.059 2.661 1.683 4.063l2.367 1.905-2.25-.63c-1.644-.46-2.25-.208-2.25.938 0 1.078.946 1.567 3.031 1.567 4.045 0 5.078-2.684 1.994-5.181-1.27-1.028-1.958-2.195-1.53-2.594s.98-.162 1.225.525c.604 1.689 2.28 1.591 2.28-.133 0-.761-1.012-1.655-2.25-1.987-3.341-.895-3.555-.819-4.3 1.527m-55.2-.434c-3.185.396-3.25.504-3.25 5.465v5.062l3.125-.625c1.719-.344 3.519-.625 4-.625s.875-2.25.875-5-.338-4.928-.75-4.84-2.213.342-4 .563m7.303 2.848c-.369 1.964-.917 4.214-1.219 5-.335.873.077 1.429 1.059 1.429.884 0 1.643-.787 1.686-1.75.047-1.045.282-1.247.583-.5.278.688 1.397 1.25 2.489 1.25 1.421 0 1.836-.497 1.464-1.75-.286-.963-.815-2.987-1.176-4.5-.99-4.153-4.05-3.639-4.886.821m34.699-.071c.011 2.2.216 2.982.455 1.738s.23-3.044-.02-4-.446.062-.435 2.262M154 122c0 2.2-.007 4.338-.015 4.75s1.709.853 3.814.979l3.829.229.04-4.979.041-4.979h-3.855c-3.83 0-3.854.025-3.854 4m9.606 1.75c.135 3.458.622 4.838 1.79 5.073 1.304.263 1.604-.626 1.604-4.75 0-4.208-.305-5.073-1.79-5.073-1.495 0-1.76.783-1.604 4.75m4.894.188c0 3.882.38 5.059 1.75 5.417 1.215.318 1.75-.125 1.75-1.449 0-1.048.675-1.906 1.5-1.906q1.5 0 1.5-3c0-2.291-.454-3-1.918-3-1.055 0-2.518-.23-3.25-.511-.999-.383-1.332.729-1.332 4.449M81 125c0 4.225.291 5 1.878 5 2.119 0 4.775-2.68 3.71-3.745-.383-.383-1.115-.035-1.627.774-.66 1.043-.912.308-.867-2.529.035-2.2.291-3.437.568-2.75.703 1.741 2.338 1.566 2.338-.25q0-1.5-3-1.5c-2.933 0-3 .111-3 5m10.583-4.134c-.431.697-.513 1.537-.183 1.867.895.895 1.871-.421 1.387-1.871-.338-1.016-.574-1.016-1.204.004M157 121c0 .55.477 1 1.059 1s.781-.45.441-1-.816-1-1.059-1-.441.45-.441 1m-120.856 5.25c-.877 2.204-1.745 2.757-4.369 2.786l-3.275.036 2.632 2.214c2.009 1.69 2.44 2.687 1.82 4.214-1.338 3.298-1.073 3.625 1.548 1.908 2.308-1.512 2.69-1.513 4.977-.015 2.469 1.618 2.474 1.614 1.877-1.375-.475-2.372-.105-3.411 1.773-4.975l2.373-1.976-3.167-.034c-2.54-.026-3.357-.577-4.13-2.783l-.965-2.75zm181.445.25c-.504 2.011-1.259 2.507-3.858 2.533l-3.231.034 2.373 1.976c1.878 1.564 2.248 2.603 1.773 4.975-.597 2.989-.592 2.993 1.877 1.375 2.287-1.498 2.669-1.497 4.977.015 2.801 1.835 2.886 1.738 1.555-1.764-.807-2.123-.552-2.75 1.75-4.298l2.695-1.812-3.5-.517c-2.673-.395-3.575-1.048-3.82-2.767-.425-2.994-1.81-2.86-2.591.25M91 126c0 .55.45 1 1 1s1-.45 1-1-.45-1-1-1-1 .45-1 1m-1.426 20.766c-.443 1.397-1.527 2.245-2.891 2.264-1.998.028-2.031.119-.389 1.075 1.178.685 1.584 1.704 1.182 2.969-.643 2.027.937 2.685 2.064.861.429-.694 1.347-.442 2.634.723 1.927 1.743 1.96 1.722 1.317-.838-.491-1.958-.192-2.898 1.175-3.693 1.687-.98 1.651-1.069-.448-1.097-1.432-.019-2.59-.863-3.109-2.264l-.826-2.233zm75.189.031c-.383 1.466-1.359 2.213-2.919 2.233-2.143.028-2.187.122-.51 1.097 1.367.795 1.666 1.735 1.175 3.693-.643 2.56-.61 2.581 1.317.838 1.287-1.165 2.205-1.417 2.634-.723 1.127 1.824 2.707 1.166 2.064-.861-.402-1.265.004-2.284 1.182-2.969 1.658-.965 1.635-1.046-.303-1.075-1.178-.017-2.528-.996-3.08-2.233l-.983-2.203zM126 147c-.825.533-2.76.976-4.3.985-1.784.009-4.025 1.194-6.179 3.265-1.859 1.787-4.311 4.033-5.45 4.99s-2.071 2.892-2.071 4.3-.724 3.959-1.609 5.67c-1.478 2.859-1.478 3.385 0 6.484.885 1.856 1.609 4.319 1.609 5.474 0 2.717 9.225 11.832 11.976 11.832 1.148 0 3.686.667 5.638 1.483 3.138 1.311 3.883 1.311 6.418 0 1.578-.816 4.037-1.483 5.466-1.483 3.7 0 12.489-8.905 12.537-12.702.02-1.539.656-3.918 1.414-5.287 1.174-2.121 1.168-2.991-.036-5.873-.777-1.86-1.425-4.34-1.439-5.51-.04-3.3-9.098-11.612-13.42-12.313-1.981-.321-3.843-.974-4.137-1.45-.714-1.155-4.546-1.074-6.417.135m-5.655 6.002c-7.586 3.858-11.907 13.736-9.37 21.421 3.587 10.87 15.444 16.295 25.566 11.697 10.181-4.624 14.241-16.909 8.693-26.301-4.608-7.8-16.534-11.067-24.889-6.817m-2.817 4.968c-2.493 2.603-2.634 3.052-1.136 3.627 1.892.726 6.608-3.036 6.608-5.271 0-2.228-2.474-1.484-5.472 1.644m9.447.595c-.536 1.411-.975 3.186-.975 3.945 0 .933-1.513 1.479-4.672 1.685-2.569.168-4.84.818-5.046 1.445-.206.626 1.248 2.143 3.233 3.369 2.57 1.588 3.421 2.699 2.961 3.86-.355.897-.9 3.144-1.21 4.994l-.564 3.363 4.149-2.746 4.149-2.746 4 2.647c4.463 2.954 4.476 2.941 2.799-2.658-1.194-3.983-1.177-4.029 2.722-7.302l3.923-3.293-5.098-.676c-4.863-.646-5.15-.855-6.261-4.564-1.351-4.508-2.73-4.952-4.11-1.323"/><path fill="#1976D2" fill-opacity=".795" fill-rule="evenodd" d="M110.5 58.138c-25.24 1.544-27.522 1.728-35.224 2.836-11.76 1.693-24.573 4.091-25.738 4.817-.571.356-2.05.516-3.288.357-1.986-.257-12.05 2.355-34.5 8.953L5 77.085v18.074l3-.659 3-.659v33.686l13.981 13.954 13.98 13.954 13.27-3.238c7.298-1.78 13.781-3.228 14.408-3.217s1.419 1.516 1.762 3.345c.944 5.029 4.934 8.012 17.977 13.438 12.805 5.327 13.408 5.912 15.031 14.594.992 5.302 11.164 15.321 16.439 16.192 2.009.331 4.879 1.069 6.38 1.639 2.756 1.047 5.189.854 14.27-1.129 4.871-1.063 5.513-1.537 15.459-11.396 1.019-1.01 2.148-3.485 2.508-5.5.938-5.24 2.738-10.02 3.973-10.547.584-.249 5.547-2.3 11.029-4.556 11.111-4.573 15.207-7.807 16.132-12.735.343-1.829 1.136-3.334 1.762-3.345s7.11 1.437 14.408 3.217l13.27 3.238 13.98-13.954L245 127.527V93.924l2.75.288 2.75.288.288-8.678.288-8.678-8.288-2.517c-20.722-6.294-44.265-11.319-66.288-14.147-10.199-1.31-48.935-3.761-52-3.291-.55.085-6.85.512-14 .949m6.213 5.483c-.392.392-.751 5.025-.798 10.296l-.085 9.583-2.683-9.5-2.683-9.5-4.232-.307-4.232-.308V105h6l.092-13.25.092-13.25 3.593 12.75L115.37 104h7.671l-.27-20.25-.271-20.25-2.537-.296c-1.396-.163-2.859.025-3.25.417m14.77.629c-.405 1.111-6.483 37.998-6.483 39.339 0 .296 1.463.397 3.25.224 2.858-.275 3.288-.705 3.563-3.563.296-3.063.54-3.25 4.25-3.25 3.497 0 3.937.27 3.937 2.418 0 4.075 1.064 5.582 3.94 5.582 1.5 0 2.939-.212 3.198-.472.427-.427-4.385-33.89-5.649-39.278-.45-1.923-1.183-2.25-5.039-2.25-2.701 0-4.695.502-4.967 1.25M150 84.445V105h5.937l.281-11.75.282-11.75 2 12 2 12 3.15.306 3.15.306 1.092-6.806c2.81-17.528 2.877-17.629 2.996-4.556L171 107h6V66h-4.433c-5.139 0-4.91-.437-6.557 12.5-.631 4.95-1.401 9.675-1.712 10.5s-1.517-4.35-2.682-11.5l-2.116-13-4.75-.305-4.75-.305zm-66.5-18.71c-2.2.219-4.394.785-4.875 1.257-.49.481-.552 9.456-.14 20.433L79.219 107H85V89.867l2.75.317c2.591.298 2.765.634 3.009 5.816.46 9.765 1.533 11.353 6.409 9.492 1.763-.673 1.213-14.971-.689-17.907-1.142-1.763-1.129-2.385.085-4.026.863-1.167 1.436-4.276 1.436-7.796 0-4.882-.408-6.261-2.455-8.308-2.467-2.468-3.32-2.59-12.045-1.72m-13.75 1.954c-1.58.413-1.75 2.103-1.75 17.349 0 15.401-.163 16.979-1.847 17.88-3.596 1.925-4.153-.452-4.153-17.735V68.767l-2.25.603c-1.237.331-2.849.609-3.581.616-1.071.011-1.266 3.551-1 18.104.322 17.616.393 18.14 2.692 20 4.715 3.815 12.727 1.406 15.623-4.697C74.65 100.936 75 96.36 75 83.599c0-17.92.194-17.332-5.25-15.91m111.952-.057c-1.119 1.118-.841 39.164.29 39.863.546.338 3.809 1.056 7.25 1.597 3.442.541 7.045 1.222 8.008 1.513 1.434.434 1.75-.102 1.75-2.966 0-3.487-.013-3.497-5.5-4.182l-5.5-.687V91.74l4.5.507 4.5.507v-3.377c0-2.831-.364-3.379-2.25-3.391-5.803-.035-6.75-.91-6.75-6.24v-5.021l5.5.646 5.5.646v-2.941c0-3.137-.493-3.434-7.5-4.523-2.2-.342-5.147-.847-6.548-1.122-1.402-.276-2.864-.185-3.25.201M203 91.389c0 19.944.065 20.611 2 20.611 1.1 0 2.338.003 2.75.006.412.004.975-5.509 1.25-12.25l.5-12.256 2.99 12.387c1.645 6.813 3.445 12.947 4 13.63s2.248 1.531 3.76 1.882l2.75.639V95.626c0-17.691-.211-20.493-1.582-21.019-4.143-1.59-4.414-1.008-4.509 9.643l-.09 10.25-2.811-10.818c-1.546-5.95-2.967-10.972-3.159-11.161-.192-.188-2.036-.658-4.099-1.043l-3.75-.701zM39.062 73.827C33.21 76.965 32 80.643 32 95.284c0 14.012 1.104 18.023 5.245 19.063 4.73 1.187 10.906-1.805 13.306-6.446C51.615 105.843 52 101.356 52 91.004c0-13.632-.081-14.176-2.455-16.549-2.924-2.925-5.871-3.102-10.483-.628M85 78c0 6.18.547 6.848 4.066 4.965 1.513-.81 1.934-2.115 1.934-6 0-4.85-.07-4.965-3-4.965h-3zm50.857-2.5c-.334.55-.93 3.658-1.324 6.907s-.948 6.511-1.232 7.25c-.363.948.405 1.343 2.611 1.343 2.736 0 3.058-.281 2.582-2.25-.299-1.237-.878-4.95-1.287-8.25s-1.016-5.55-1.35-5M20.5 78.515c-4.4 1.324-8.338 2.425-8.75 2.446S11 82.406 11 84.125c0 2.939.179 3.089 3 2.525l3-.6v16.975c0 9.862.392 16.975.935 16.975.514 0 2.078-.435 3.476-.966l2.541-.966.274-17.222.274-17.221 3.25-.841c2.749-.711 3.25-1.299 3.25-3.813 0-3.551-.189-3.559-10.5-.456m204.5.348c0 2.635.469 3.201 3.25 3.921l3.25.841.274 17.221.274 17.222 2.541.966c1.398.531 2.962.966 3.476.966.543 0 .935-7.113.935-16.975V86.05l3 .6c2.796.559 3 .398 3-2.379 0-2.838-.344-3.08-7.25-5.087-13.21-3.84-12.75-3.829-12.75-.321M40.2 80.2c-1.512 1.512-1.686 26.381-.191 27.306.555.342 1.905.339 3-.009 1.863-.591 1.991-1.531 1.991-14.564C45 80.183 44.847 79 43.2 79c-.99 0-2.34.54-3 1.2m66.3 33.401c-9.465.735-25.012 2.502-31.25 3.552-5.946 1.001-6.25 1.19-6.25 3.882 0 3.028.089 2.978-8.836 4.998l-5.335 1.208 3.7 3.789 3.701 3.789-3.625 4.747c-1.994 2.611-3.473 4.899-3.288 5.084.275.275 17.627-3.04 21.183-4.047.55-.156-.765-1.192-2.922-2.303l-3.922-2.02 7.922-1.11c33.667-4.718 67.177-4.718 100.844 0l7.922 1.11-3.922 2.024-3.922 2.024 10.908 2.345c5.999 1.29 11.066 2.187 11.259 1.993.194-.194-1.278-2.489-3.272-5.1l-3.625-4.747 3.701-3.789 3.7-3.789-5.335-1.208c-8.929-2.021-8.836-1.968-8.836-5.01 0-2.735-.254-2.883-6.75-3.925-15.505-2.487-24.921-3.208-46.25-3.537-12.375-.191-24.75-.173-27.5.04m6.355 4.149c-.678 3.506-.164 8.248.895 8.249.815.001 1.25-1.565 1.25-4.499 0-2.475-.45-4.5-1-4.5s-1.065.338-1.145.75m4.645 3.705c0 2.969.433 4.545 1.25 4.545.688 0 1.25-.848 1.25-1.883 0-1.069.903-2.12 2.087-2.429 3.224-.844 2.057-4.123-1.595-4.483-2.927-.288-2.992-.196-2.992 4.25m8 .045c0 2.723.454 4.5 1.149 4.5.643 0 1.307-1.985 1.508-4.5.278-3.501.023-4.5-1.15-4.5-1.119 0-1.507 1.157-1.507 4.5m5.5 0c0 4.434.115 4.619 2.672 4.316 2.399-.284 2.673-.726 2.673-4.316s-.274-4.032-2.673-4.316c-2.557-.303-2.672-.118-2.672 4.316m7.5 0c0 2.475.338 4.5.75 4.5s.762-1.237.777-2.75l.026-2.75 1.705 2.75c1.903 3.068 3.524 3.704 2.548 1-.868-2.407-4.291-7.25-5.124-7.25-.375 0-.682 2.025-.682 4.5m4.515-3.75c.009.412.452 1.425.985 2.25.784 1.213.972 1.069.985-.75.008-1.237-.435-2.25-.985-2.25s-.993.338-.985.75m-43.962 4c-1.306 4.7-1.305 5.25.006 5.25.582 0 .781-.45.441-1s.084-1 .941-1 1.559.45 1.559 1 .636 1 1.413 1c1.146 0 1.212-.614.349-3.25-.586-1.787-1.208-3.812-1.382-4.5-.622-2.452-2.303-1.189-3.327 2.5m7.585-2.25c.317.825.978 1.5 1.469 1.5s.893.873.893 1.941c0 2.702 1.662 3.461 2.293 1.048.286-1.094.112-1.989-.387-1.989-.498 0-.906-.9-.906-2 0-1.323-.667-2-1.969-2-1.339 0-1.784.48-1.393 1.5m13.362.059c0 .857.457 1.276 1.016.931.559-.346.758-1.047.441-1.559-.857-1.387-1.457-1.129-1.457.628m12.918-1.309c-.765 2.325-.733 5.746.058 6.235.625.387 1.024-.752 1.024-2.926 0-1.957-.225-3.559-.5-3.559s-.537.112-.582.25M147 119.965c0 1.08.929 2.462 2.065 3.07 1.651.883 1.827 1.391.877 2.535-.946 1.14-.858 1.43.436 1.43 2.399 0 2.008-3.839-.628-6.166l-2.25-1.986 2.25.482c1.238.266 2.25.075 2.25-.424 0-.498-1.125-.906-2.5-.906-1.818 0-2.5.536-2.5 1.965m7.474 2.532c.017 2.915.466 4.498 1.276 4.5.688.002 1.25-.924 1.25-2.056s.45-1.781 1-1.441 1 1.491 1 2.559c0 3.939 1.811 1.79 2.157-2.559.249-3.137-.023-4.5-.9-4.5-.691 0-1.257.675-1.257 1.5s-.45 1.5-1 1.5-1-.9-1-2-.574-2-1.276-2c-.85 0-1.268 1.502-1.25 4.497M89.5 119.776c-1.479 1.071-1.262 8.225.25 8.225C90.438 128 91 127.1 91 126s.45-2 1-2 1 .9 1 2 .563 2 1.25 2c.815 0 1.25-1.567 1.25-4.5s-.435-4.5-1.25-4.5c-.687 0-1.25.9-1.25 2 0 2.586-1.763 2.607-2.18.026-.178-1.1-.763-1.654-1.32-1.25m74.5 3.641c0 2.999.432 4.583 1.25 4.584.82 0 1.211-1.446 1.136-4.205-.159-5.907-2.386-6.261-2.386-.379m-82.333-2.75c-.367.366-.667 2.391-.667 4.5 0 3.422.268 3.833 2.5 3.833 1.375 0 2.5-.436 2.5-.969s-.675-.709-1.5-.393c-1.166.448-1.5-.243-1.5-3.098 0-3.292.221-3.604 2.125-3 1.43.454 1.902.312 1.441-.433-.752-1.217-3.845-1.495-4.899-.44M169 124.5c0 3.2.406 4.5 1.406 4.5.914 0 1.224-.7.884-2-.402-1.535-.031-2 1.593-2 2.536 0 2.958-3.463.535-4.393-3.631-1.393-4.418-.7-4.418 3.893m-68.921-1.917c.048 1.165.285 1.402.604.605.289-.722.253-1.585-.079-1.917s-.568.258-.525 1.312M171 122.5c0 .825.45 1.5 1 1.5s1-.675 1-1.5-.45-1.5-1-1.5-1 .675-1 1.5M35.5 126c-.586 2.667-1.066 3.001-4.329 3.005l-3.671.005 2.817 2.254c2.539 2.032 2.709 2.539 1.722 5.134-1.427 3.752-.926 4.087 2.308 1.543L37 135.855l2.653 2.086c3.234 2.544 3.735 2.209 2.308-1.543-.987-2.595-.817-3.102 1.722-5.134l2.817-2.254-3.337-.005c-2.787-.004-3.523-.499-4.469-3.005-.623-1.65-1.448-3-1.834-3s-.998 1.35-1.36 3m182 0c-.586 2.667-1.066 3.001-4.329 3.005l-3.671.005 2.817 2.254c2.539 2.032 2.709 2.539 1.722 5.134-1.427 3.752-.926 4.087 2.308 1.543l2.653-2.086 2.653 2.086c3.234 2.544 3.735 2.209 2.308-1.543-.987-2.595-.817-3.102 1.722-5.134l2.817-2.254-3.671-.005c-3.263-.004-3.743-.338-4.329-3.005-.362-1.65-1.037-3-1.5-3s-1.138 1.35-1.5 3M106 126c0 .55.45 1 1 1s1-.45 1-1-.45-1-1-1-1 .45-1 1m10.453 11.076c-.365.591-.368 3.452-.005 6.357l.66 5.282-4.942 4.893c-3.684 3.646-5.115 5.911-5.62 8.892-1.855 10.949-.279 16.994 6.028 23.124 6.463 6.282 13.864 8.03 23.979 5.664 5.546-1.296 13.445-9.2 14.726-14.735 2.268-9.794.533-16.898-5.632-23.064-4.564-4.564-4.647-4.761-4.647-11.068V136h-11.941c-7.442 0-12.191.405-12.606 1.076m-26.879 8.69c-.493 1.554-1.497 2.234-3.296 2.234-2.51 0-2.534.059-.808 1.967 1.038 1.147 1.559 2.815 1.249 4-.584 2.232.273 2.641 1.974.94.79-.79 1.713-.76 3.335.108 2.093 1.12 2.201 1.033 1.615-1.303-.435-1.733-.169-2.68.864-3.076 2.188-.84 1.821-2.636-.539-2.636-1.19 0-2.375-.926-2.859-2.234l-.826-2.233zm75.189.031c-.42 1.607-1.345 2.212-3.419 2.236l-2.844.034 2.192 1.83c1.541 1.286 2.017 2.499 1.604 4.08-.541 2.068-.407 2.153 1.665 1.044 1.63-.872 2.556-.904 3.346-.114 1.763 1.763 2.449 1.269 1.94-1.395-.322-1.683.047-2.687 1.139-3.107 2.403-.922 1.951-2.405-.733-2.405-1.455 0-2.721-.837-3.33-2.203l-.983-2.203z"/></svg>