<svg xmlns="http://www.w3.org/2000/svg" width="256" height="256"><path fill="#1976D2" fill-opacity=".016" fill-rule="evenodd" d="M0 128.004v128.004l128.25-.254 128.25-.254.254-127.75L257.008 0H0zm.485.496c0 70.4.119 99.053.265 63.672s.146-92.98 0-128S.485 58.1.485 128.5"/><path fill="#1976D2" fill-opacity=".135" fill-rule="evenodd" d="M134 22.089c-2.475.478-5.492 1.394-6.705 2.035-2.714 1.435-5.874 7.697-4.552 9.019 1.31 1.31 10.439-1.226 9.859-2.739-.27-.703 1.012-1.409 3.225-1.775 5.613-.928 15.173-.743 15.173.293 0 .508-1.484 2.87-3.297 5.25-3.128 4.107-3.616 4.359-9.568 4.932-6.397.616-10.008 2.674-8.624 4.914.48.777 2.169 1.02 4.716.678l3.967-.532-2.271 2.418c-1.249 1.33-3.046 2.418-3.992 2.418-1.938 0-7.931 5.214-7.931 6.901 0 3.277 7.125-.327 15.891-8.039 2.415-2.124 5.259-3.862 6.321-3.862 2.096 0 4.788-2.209 4.788-3.929 0-.589-.44-1.071-.978-1.071s.812-2.77 3-6.155c6.458-9.992 5.408-11.897-6.472-11.735-4.427.06-10.075.5-12.55.979m-84.384 9.979c-3.051 2.788-7.186 7.303-9.19 10.033-2.765 3.767-4.097 4.821-5.519 4.37-2.373-.754-6.907 3.579-6.907 6.6 0 1.67.455 2.043 2 1.639 2.84-.742 2.481.729-1.062 4.353-3.618 3.701-5.44 7.835-4.062 9.213 1.481 1.481 2.774.163 7.275-7.414 4.041-6.801 5.264-7.823 11.03-9.217 2.612-.632 2.657-.566 1.754 2.58-2.021 7.047 2.067 9.086 7.121 3.552 1.619-1.772 2.944-3.572 2.944-4 0-1.152-1.435-.942-2.783.406-1.674 1.674-2.428.507-1.657-2.565.408-1.627 1.347-2.618 2.481-2.618 1.003 0 2.12-.931 2.481-2.069.625-1.969.72-1.982 1.976-.264.899 1.229 1.019 2.367.376 3.569-.695 1.299-.572 1.764.469 1.764.778 0 1.96-1.318 2.627-2.928.667-1.611 1.857-3.175 2.645-3.478 1.153-.442 1.221-.155.348 1.475-.595 1.113-.943 3.461-.773 5.219.407 4.198 3.156 4.713 6.754 1.265 2.427-2.325 2.895-2.452 4.024-1.092 2.136 2.575 6.844 1.881 10.232-1.507 3.012-3.012 3.063-3.024 4.48-1 1.977 2.822 4.937 2.561 7.021-.621l1.748-2.667.569 2.412c.313 1.326 1.385 2.569 2.382 2.76 1.988.383 8.6-5.409 8.6-7.534 0-1.696-.55-1.645-3.566.331-3.071 2.012-4.331 1.031-2.481-1.93 2.149-3.441 2.408-8.629.467-9.374-2.628-1.008-9.91 3.179-13.964 8.027-3.996 4.782-9.863 8.585-11.167 7.239-.434-.449.336-1.554 1.711-2.456 7.153-4.695 8.952-9.354 3.841-9.948-3.226-.374-9.514 4.779-11.432 9.371-1.459 3.49-4.106 6.072-5.153 5.025-.383-.383.349-2.665 1.626-5.073 1.277-2.407 2.038-4.836 1.691-5.398-.858-1.387-9.024-.818-10.928.762-.844.7-2.423 1.126-3.509.947-1.924-.319-1.912-.477.467-6.3 4.091-10.013 1.557-11.268-6.987-3.459M46.65 39.15c-2.524 2.885-4.45 5.383-4.281 5.552s1.617-.154 3.219-.718c2.027-.713 3.443-2.285 4.66-5.173.961-2.282 1.577-4.319 1.369-4.527s-2.443 1.981-4.967 4.866m107.465-2.772c-1.24 1.319-2.152 3.012-2.027 3.76.125.749-.124 2.169-.554 3.155-1.334 3.063.518 3.344 3.003.457 3.014-3.502 5.326-3.716 3.078-.285-2.08 3.174-2.07 7.146.019 7.948.898.345 3.068-.22 4.822-1.255 3.162-1.865 3.197-1.863 4.116.23 1.326 3.017 6.574 3.303 10.954.596 2.672-1.651 3.474-1.818 3.474-.721 0 4.099 7.032 6.032 11.979 3.294 2.329-1.289 2.552-1.199 3.687 1.5 1.551 3.689 5.276 4.662 10.296 2.69 3.728-1.464 3.856-1.442 4.912.875 1.251 2.747 3.732 3.043 6.903.821 2.152-1.507 2.223-1.459 2.223 1.5 0 3.745 2.181 4.026 8.04 1.037 4.898-2.499 5.114-4.041.46-3.286-4.175.677-4.569-.708-1-3.515 1.375-1.082 2.5-2.652 2.5-3.49 0-.837.51-1.692 1.134-1.9 1.822-.608-1.976-3.789-4.524-3.789-3.905 0-12.09 2.867-14.442 5.058-4.21 3.922-12.168 4.805-12.168 1.35 0-1.753 5.285-4.053 5.795-2.522.581 1.741 5.206-1.04 5.823-3.501 1.451-5.78-3.462-5.521-13.807.729-3.709 2.241-7.322 3.843-8.028 3.559-.835-.335-.698-.543.394-.594 4.247-.2 8.106-11.266 4.422-12.679-.771-.296-3.487 1.054-6.036 3-5.406 4.126-12.806 7.6-16.19 7.6-3.844 0-2.735-1.402 2.611-3.301 5.797-2.059 8.073-5.071 5.657-7.487-2.458-2.457-9.122.038-14.4 5.392-3.952 4.008-7.241 5.636-7.241 3.583 0-.447 1.35-2.106 3-3.687 3.103-2.973 3.933-6.271 1.75-6.953-5.512-1.723-8.452-1.493-10.635.831M95.15 42.006C90.925 45.067 89.867 47 92.416 47c.779 0 2.842-1.8 4.584-4s2.973-4 2.734-4-2.301 1.353-4.584 3.006m-15.289-.039c-1.299 1.081-1.868 1.981-1.266 2S80.505 43.1 81.5 42c2.316-2.559 1.415-2.577-1.639-.033M174 42c-.825.533-1.05.969-.5.969s1.675-.436 2.5-.969 1.05-.969.5-.969-1.675.436-2.5.969m13.711 2.852c-2.536 1.673-2.64 1.962-1.142 3.206 1.417 1.175 1.842 1.1 3.039-.537 1.189-1.626 1.925-4.535 1.142-4.514-.137.003-1.505.834-3.039 1.845m33.627 7.297c-4.75 1.066-8.017 3.851-4.518 3.851 1.886 0 9.18-3.654 9.18-4.599 0-.22-.113-.353-.25-.294s-2.123.528-4.412 1.042M104.034 60.15C54.113 65.361 13.546 87.726 2.921 115.895c-7.159 18.98-.725 39.692 17.147 55.196 12.126 10.52 24.998 17.65 42.281 23.419 40.51 13.524 86.737 13.858 127.588.922 33.156-10.499 56.558-29.107 63.054-50.137 8.104-26.238-7.572-51.706-42.491-69.036-27.49-13.642-69.381-19.981-106.466-16.109M112 63.632c-21.292 2.707-35.982 6.786-50.304 13.967-12.029 6.031-16.867 9.445-25.278 17.836-19.068 19.023-22.174 41.255-8.719 62.413 7.474 11.752 20.48 21.303 34.11 25.049 18.656 5.126 37.637 3.582 80.191-6.525 14.634-3.476 32.866-3.998 37.337-1.07 3.794 2.485 4.942 5.949 3.61 10.896-.593 2.202-.795 4.287-.449 4.634 1.179 1.178 21.633-10.04 29.045-15.93 17.323-13.766 26.177-32.378 23.468-49.333-4.575-28.637-35.433-52.082-79.208-60.18-8.09-1.496-36.795-2.648-43.803-1.757m74.5 29.442c-3.81 1.9-13.5 10.558-13.5 12.063 0 2.172 17.499-2.38 20.75-5.397 2.761-2.563 2.915-6.314.316-7.705-2.529-1.353-2.859-1.308-7.566 1.039m-131 .897c-3.662.682-3.746.764-1 .973l3 .228-3 .927c-1.65.51-4.125.683-5.5.384-1.394-.303-1.977-.191-1.318.254.784.529-.226 1.598-3 3.178l-4.182 2.381 2-2.294 2-2.293-2.304 1.209c-2.99 1.57-5.911 6.435-6.713 11.181-1.091 6.46 2.043 11.689 11.171 18.638 9.933 7.561 10.422 8.179 10.106 12.764-.393 5.704-3.099 7.083-9.676 4.932-2.81-.919-6.756-2.98-8.769-4.58s-4.006-2.558-4.43-2.131-1.195 2.678-1.715 4.999c-1.193 5.33-.561 5.888 8.898 7.86 14.399 3.003 29.519-2.157 34.527-11.781 1.741-3.347 1.802-11.456.111-14.8-.695-1.375-4.259-4.531-7.919-7.014C58.001 112.349 56 110.203 56 106.349c0-6.844 9.196-8.407 17.739-3.014 4.573 2.887 4.784 2.788 5.14-2.411.363-5.313.163-5.402-16.379-7.346-1.65-.194-4.8-.017-7 .393m99.5-.422c-.825.175-3.214.598-5.31.941-7.228 1.182-15.854 12.197-12.612 16.105 1.47 1.77-.781 2.896-2.664 1.333-1.952-1.619-3.428-.161-3.704 3.661-.169 2.344.233 2.972 2.071 3.234 1.966.279 2.209.765 1.752 3.501-.291 1.747-1.222 7.676-2.068 13.176-1.916 12.45-4.586 21.409-8.467 28.41-3.532 6.372-3.637 7.09-1.036 7.09 4.554 0 12.948-4.179 16.81-8.368 5.277-5.726 7.896-13.183 10.464-29.801 1.692-10.947 2.463-13.834 3.701-13.846 2.626-.026 4.003-1.436 4.673-4.785.594-2.969.445-3.2-2.064-3.2-2.524 0-2.66-.217-2.025-3.25.859-4.105 2.8-6.154 5.96-6.293 2.981-.13 6.519-3.109 6.519-5.487 0-2.318-6.392-3.607-12-2.421m80 16.886c0 .239.481 1.7 1.069 3.246 2.186 5.751 2.972 19.478 1.693 29.569-.401 3.162-.563 5.75-.361 5.75.203 0 1.146-2.363 2.096-5.25 2.674-8.128 2.273-18.805-1.015-27.018-2.334-5.83-3.482-7.907-3.482-6.297m-33.835 1.519c-2.384.387-4.634 1.163-5 1.725-.749 1.15-4.604 3.329-5.849 3.306-.449-.009-.141-.452.684-.985q1.5-.969.25-.985c-2.137-.026-5.389 3.998-5.061 6.263.421 2.914 4.729 5.21 8.16 4.349 1.491-.374 3.709-1.853 4.931-3.287s2.815-3.221 3.541-3.973c3.406-3.523 5.227.316 2.597 5.474-2.758 5.41-2.787 5.505-1.393 4.644.848-.525 1.038-.397.56.377-.398.644-1.111.931-1.585.638s-2.05.568-3.501 1.914c-2.626 2.433-12.086 6.345-10.967 4.535.931-1.506-.767-1.103-4.218 1.001-4.187 2.553-5.648 5.458-4.859 9.663 1.139 6.072 8.597 8.759 16.474 5.936 3.526-1.263 4.589-1.328 5.212-.318.537.87 3.549 1.269 9.571 1.269h8.788l.642-7c.353-3.85 1.365-10.469 2.25-14.708 2.107-10.1 2.029-12.987-.437-16.123-3.295-4.187-10.235-5.428-20.79-3.715m-99.352 1.376c-.732.732-1.952 1.124-2.711.871-.774-.258-1.099-.005-.74.576.396.64-.137.833-1.394.505-2.171-.568-6.3 2.372-5.392 3.84.29.47-.112.609-.895.309-1.858-.713-7.248 6.089-9.193 11.604-4.645 13.163 2.05 22.24 16.512 22.388 8.08.083 13.765-2.49 20.798-9.413 10.345-10.183 10.945-25.053 1.218-30.175-4.25-2.238-16.141-2.567-18.203-.505m62.326 4.069c-.123 5.326-4.454 28.669-6.144 33.114-.718 1.89-.49 2.388 1.318 2.873 3.947 1.059 15.244.657 16.487-.586.66-.66 1.2-3.498 1.2-6.307s.932-10.032 2.07-16.05c1.139-6.019 2.323-12.63 2.632-14.693l.561-3.75h-18zm-159.31 4.75c-2.09 6.983-1.589 17.62 1.054 22.351 1.229 2.2 1.991 3.198 1.694 2.217-2.092-6.908-2.777-14.851-1.835-21.276.559-3.818.876-7.099.703-7.292-.172-.193-.9 1.607-1.616 4m97.729-.26c-2.149 4.154-4.525 13.653-4.722 18.878-.187 4.933 2.726 8.999 5.644 7.879.906-.348 1.414-1.008 1.13-1.467s.644-3.709 2.063-7.221c1.841-4.558 2.614-8.397 2.703-13.421.122-6.933.084-7.042-2.569-7.348-2.138-.247-3.013.309-4.249 2.7m96.013 15.479c-1.964 1.853-3.571 4.033-3.571 4.845 0 2.214 3.335 4.798 6.079 4.708 1.331-.043 1.892-.295 1.246-.558-.874-.357-.811-1.35.25-3.889 1.616-3.868 1.886-8.474.496-8.474-.511 0-2.536 1.516-4.5 3.368m43.881 42.278c-3.947 4.259-2.912 9.092 2.419 11.301 2.332.965 3.437.96 5.288-.027 5.314-2.831 6.297-7.555 2.386-11.465-3.215-3.216-7.002-3.144-10.093.191m-89.452.353c-4.125.405-10.65 1.511-14.5 2.456-22.815 5.604-35.564 7.771-49 8.33-16.41.683-13.197 2.066 5 2.152 11.01.051 16.336-.59 28.5-3.434 14.539-3.399 31.946-6.58 39.25-7.171 4.262-.346 7.75-1.012 7.75-1.48 0-.469-1.238-.858-2.75-.866-1.512-.007-3.65-.173-4.75-.369-1.1-.195-5.375-.023-9.5.382m93.813-.316c.721.289 1.584.253 1.916-.079s-.258-.568-1.312-.525c-1.165.048-1.402.285-.604.604m-3.146.984c-1.119 1.118-.743 6.857.533 8.133.66.66 2.239 1.2 3.508 1.2 2.029 0 2.163-.234 1.106-1.926-1.113-1.782-1.294-1.8-2.437-.25-1.149 1.56-1.281 1.554-1.917-.086-.376-.97-.486-3.107-.245-4.75.474-3.229.452-3.322-.548-2.321m7.059.307c.891 1.002.929 1.737.138 2.689-1.28 1.543-.338 4.748 1.129 3.841 1.624-1.003 1.157-5.146-.743-6.583-1.478-1.119-1.559-1.11-.524.053M99.25 217.662c-.687.278-1.25 1.11-1.25 1.85s-.678 2.024-1.508 2.853c-.829.829-1.11 1.753-.625 2.053.508.314.511 2.531.007 5.229-.482 2.577-.626 4.935-.32 5.24.888.889 2.184-1.849 2.852-6.025.396-2.476 1.152-3.862 2.106-3.862.818 0 1.488-.45 1.488-1s-.45-1-1-1c-1.577 0-1.165-2.999.5-3.638.825-.317 1.5-.978 1.5-1.469 0-.953-1.701-1.058-3.75-.231M199.694 220c-.623 1.65-1.764 3-2.536 3-1.066 0-1.133.325-.28 1.354.7.842.883 3.108.487 6-.812 5.924 1.324 6.445 2.266.552.36-2.252 1.575-4.952 2.7-6 1.671-1.556 1.753-1.906.451-1.906-1.102 0-1.433-.617-1.072-2 .288-1.1 1.146-2 1.907-2 .76 0 1.383-.45 1.383-1s-.939-1-2.087-1c-1.4 0-2.459.987-3.219 3m-162.626 4.199c-.666 3.466-1.453 7.313-1.748 8.551-.498 2.085-.2 2.25 4.072 2.25 2.534 0 4.608-.45 4.608-1s-1.381-1-3.07-1c-2.611 0-3.021-.336-2.75-2.25.218-1.531 1.119-2.357 2.82-2.585 3.614-.483 4.98-2.165 1.759-2.165-5.115 0-4.594-4.691.576-5.193 4.555-.442 3.899-2.253-.945-2.608l-4.11-.3zm34.503-4.628c-2.604 2.605-1.961 6.176 1.429 7.929 3.401 1.759 3.67 2.687 1.428 4.929-1.047 1.047-2.434 1.357-4.149.926-1.806-.453-2.365-.304-1.869.499 1.1 1.78 6.095 1.35 7.935-.683 2.419-2.672 2.064-4.349-1.545-7.316-2.832-2.327-3.052-2.846-1.834-4.314.903-1.088 2.196-1.466 3.71-1.086 1.668.418 2.324.154 2.324-.936 0-2.052-5.361-2.015-7.429.052m34.012.072c-.944 2.463-.129 2.618 1.911.363 1.535-1.696 1.576-2.006.268-2.006-.851 0-1.832.739-2.179 1.643m101.397-.119c-2.061 2.483-.117 3.057 2.27.67 1.764-1.763 1.88-2.194.595-2.194-.88 0-2.169.686-2.865 1.524m-158.688 9.229c-.532 2.932-.652 5.524-.269 5.761 1.183.731 1.977-.718 1.977-3.609 0-3.026 2.275-5.905 4.665-5.905 1.252 0 1.4.888.835 5-.434 3.156-.315 5 .323 5 1.158 0 3.475-9.709 2.64-11.06-.304-.491-2.499-.808-4.879-.705l-4.326.189zm34.924-4.003c-2.8 2.444-3.61 6.713-1.645 8.678 4.752 4.752 12.398-2.133 9.822-8.846-.816-2.128-5.66-2.028-8.177.168m21.423-.975c-.4.648-1.004 3.509-1.341 6.358-.77 6.502 1.265 5.965 2.248-.594.738-4.918.298-7.713-.907-5.764m7.611-.131c-2.228.932-1.322 2.092 1.25 1.601 3.755-.718 3.007 1.433-.952 2.739-3.343 1.104-5.307 3.979-4.077 5.97.331.534 2.497.932 4.815.884l4.214-.088v-5.625c0-4.895-.26-5.65-2-5.815-1.1-.104-2.562.046-3.25.334m17.297 1.304c-1.695 1.874-1.66 2.043.936 4.449 2.899 2.686 2.567 5.071-.567 4.076-1.071-.34-1.916-.137-1.916.46 0 1.453 4.313 1.354 5.8-.133 1.821-1.821 1.437-4.603-.8-5.8-2.76-1.477-2.506-3 .5-3 1.375 0 2.5-.45 2.5-1 0-1.753-4.623-1.074-6.453.948m9.946.422c-.927 1.415-1.493 3.921-1.312 5.809.278 2.895.714 3.36 3.404 3.622 1.878.183 3.589-.306 4.373-1.25 1.422-1.714.052-2.161-1.591-.518-1.49 1.49-4.367.081-4.367-2.14 0-1.547.743-1.893 4.066-1.893 3.847 0 4.05-.149 3.75-2.75-.262-2.279-.862-2.803-3.504-3.059-2.488-.241-3.547.238-4.819 2.179m20.323-.667c-3.754 4.271-2.891 10.312 1.469 10.282 2.855-.02 5.294-1.509 3.891-2.376-.571-.353-1.308-.204-1.639.331-1.133 1.834-3.537-.153-3.537-2.925 0-3.35 2.246-5.445 5.052-4.712 1.311.343 1.922.113 1.678-.632-.637-1.941-5.199-1.92-6.914.032m10.98.047c-3.899 4.507-2.685 10.25 2.167 10.25 5.015 0 9.093-7.544 5.837-10.8-1.768-1.768-6.266-1.459-8.004.55m12.717 2.159c-.357 1.975-.893 4.603-1.19 5.841-.302 1.261-.073 2.25.523 2.25.585 0 1.363-1.597 1.729-3.549.727-3.872 2.738-6.451 5.031-6.451 1.177 0 1.333.976.8 5-.78 5.88.999 7.019 1.952 1.25 1.304-7.891 1.121-8.284-3.777-8.099-4.241.16-4.444.311-5.068 3.758m21.975-.159c-.332 2.063-.811 4.762-1.065 6s-.029 2.25.499 2.25c1.415 0 1.775-.951 2.558-6.75.824-6.112-1.027-7.506-1.992-1.5m7.762-3.088c-2.312.933-1.276 2.383 1.25 1.749 3.607-.906 3.076.974-.75 2.659-2.419 1.064-3.25 2.07-3.25 3.93 0 2.298.386 2.511 4.783 2.642 3.564.106 4.534-.158 3.806-1.034-.607-.732-.642-2.655-.094-5.087.485-2.151.658-4.273.385-4.716-.54-.872-4.115-.956-6.13-.143m-128.679 2.909c-1.927 1.928-2.029 4.804-.223 6.303 2.074 1.721 6.166-3.372 5.048-6.284-.777-2.025-2.81-2.033-4.825-.019M142.5 226c-.34.55.335 1 1.5 1s1.84-.45 1.5-1-1.015-1-1.5-1-1.16.45-1.5 1m29.535.934c-1.472 2.751-1.281 5.034.478 5.709 2.255.866 4.487-1.504 4.487-4.765 0-2.194-.467-2.878-1.965-2.878-1.08 0-2.43.87-3 1.934m-60.576 4.133c-.363.586-.409 1.317-.102 1.623.822.823 3.643-.461 3.643-1.659 0-1.357-2.697-1.33-3.541.036m101 0c-.363.586-.409 1.317-.102 1.623.822.823 3.643-.461 3.643-1.659 0-1.357-2.697-1.33-3.541.036"/><path fill="#1976D2" fill-opacity=".544" fill-rule="evenodd" d="M134.868 22.376c-7.149 1.276-9.232 2.493-11.383 6.652-1.941 3.754-.404 5.05 4.346 3.666 4.589-1.337 4.928-1.607 3.289-2.62-1.331-.823.705-1.234 13.118-2.648 7.368-.839 8.218.72 3.77 6.914-2.992 4.165-3.52 4.46-9.159 5.098-7.32.828-8.849 1.375-8.849 3.169 0 .959 1.248 1.393 4 1.393 2.2 0 3.997.337 3.993.75-.008.944-6.267 5.25-7.631 5.25-1.366 0-5.362 4.332-5.362 5.814 0 .653.247 1.186.55 1.186 1.531 0 6.982-3.529 12.351-7.997 3.306-2.752 6.861-5.003 7.9-5.003s2.653-.844 3.587-1.876c1.514-1.673 1.529-1.942.139-2.475-1.286-.494-.951-1.446 1.904-5.42 7.434-10.347 6.592-13.294-3.752-13.133-3.399.053-9.163.628-12.811 1.28M51.913 30.44c-2.428 1.892-7.046 6.638-10.261 10.546-3.359 4.082-6.55 7.038-7.499 6.945-3.118-.305-3.834.074-5.005 2.644-1.348 2.957-.748 4.592 1.384 3.774 2.559-.982 1.591 1.772-2.032 5.783-2.006 2.22-3.5 4.926-3.5 6.339 0 4.003 2.206 2.114 7.027-6.016 3.711-6.259 5.019-7.651 7.957-8.467 5.442-1.512 6.136-1.314 5.419 1.544-1.102 4.387-.951 5.66.802 6.796 1.363.883 2.234.61 4.342-1.361 1.45-1.357 3.112-3.35 3.694-4.43 1.028-1.909.985-1.915-1.592-.227-2.62 1.717-2.649 1.709-2.649-.748 0-1.366.707-3.063 1.572-3.773C55.705 46.398 57 44.873 57 43.393c0-1.018-.55-1.396-1.5-1.031-2.007.77-1.861-.97.522-6.221C58.059 31.652 58.64 27 57.164 27c-.46 0-2.823 1.548-5.251 3.44m-4.868 8.105c-2.896 3.063-5.044 5.79-4.773 6.06.271.271 1.69.192 3.154-.176 1.887-.473 3.395-2.117 5.185-5.648 1.388-2.739 2.338-5.165 2.112-5.392-.227-.226-2.781 2.094-5.678 5.156m49.959-2.951c-2.472 1.413-6.764 5.007-9.538 7.987C84.378 46.9 81.589 49 80.271 49c-3.406 0-3.608-1.774-.392-3.437 1.619-.838 3.9-2.738 5.068-4.222 1.867-2.375 1.946-2.877.654-4.169-2.963-2.963-10.079 1.941-13.016 8.97C71.318 49.174 69.376 51 67.418 51c-.99 0-.288-3.412 1.232-5.984 2.348-3.975 1.278-6.143-2.496-5.06-1.744.5-3.338.46-3.895-.097-1.709-1.709-3.736 2.253-3.839 7.502-.08 4.094.112 4.721.99 3.24 2.07-3.491 4.42-6.099 4.987-5.535.313.312.141 2.057-.381 3.878-.954 3.327.072 7.056 1.942 7.056.489 0 2.221-1.121 3.85-2.492 2.58-2.171 3.12-2.299 4.199-1 2.038 2.456 5.751 1.705 9.839-1.988l3.851-3.479 1.13 2.479c1.497 3.284 2.902 3.129 6.961-.77 1.991-1.912 3.3-2.633 3.179-1.75-.841 6.179 1.245 6.45 6.58.853 2.609-2.738 3.273-3.889 1.953-3.387-4.76 1.811-5.5 1.791-5.5-.149 0-1.055.563-2.479 1.25-3.167 2.308-2.307 1.416-8.105-1.25-8.123-.275-.001-2.523 1.153-4.996 2.567m57.583.728c-1.548 1.548-2.328 3.189-1.965 4.135.331.863.046 2.238-.633 3.056-2.09 2.519.517 1.642 3.011-1.013 2.138-2.276 5-3.368 5-1.908 0 .326-.9 1.737-2 3.135-4.035 5.13-1.266 9.11 4.169 5.991 2.723-1.563 2.928-1.53 5.311.852 2.708 2.709 5.764 2.575 10.444-.457 1.979-1.283 2.506-1.323 2.875-.217 1.537 4.611 6.593 6.238 11.201 3.604 3.419-1.955 5-1.845 5 .345 0 1.015.901 2.661 2.003 3.657 1.984 1.797 4.223 1.557 10.741-1.148.701-.291 1.672.609 2.225 2.065 1.189 3.127 1.926 3.175 7.321.471 2.315-1.161 3.648-1.521 2.96-.8S221 60.435 221 61.7c0 3 2.214 2.922 8-.282l4.5-2.492-3.343.377c-4.555.515-5.294-1.804-1.551-4.864 1.592-1.302 2.501-2.383 2.022-2.403s-.329-.691.336-1.492c4.775-5.754-12.343-4.295-18.602 1.586-3.011 2.829-9.504 3.609-11.366 1.365-1.247-1.502-1.181-1.889.542-3.165 1.137-.843 3.091-1.234 4.648-.93 3.362.656 7.444-2.317 6.512-4.744-1.178-3.071-7.382-1.551-15.088 3.696-2.139 1.456-4.839 2.634-6 2.618-2.08-.03-2.082-.046-.11-1.125 1.1-.601 2.563-1.799 3.25-2.66 1.399-1.754 1.707-8.785.419-9.58-.457-.283-3.453 1.448-6.659 3.846-5.844 4.371-13.883 7.723-16.302 6.797-2.168-.83-.841-2.388 3.224-3.786 4.742-1.63 7.037-3.796 6.236-5.884-1.329-3.463-12.331.017-14.784 4.675-1.427 2.71-2.804 3.711-5.134 3.732-2.526.022-2.168-1.44 1.327-5.42 3.432-3.908 3.153-5.565-.936-5.565-1.508 0-3.246-.505-3.864-1.123-.83-.83-1.791-.454-3.69 1.445m-59.314 4.99c-3.453 2.341-4.654 4.262-3.667 5.86.649 1.05 5.894-3.432 7.515-6.422 1.242-2.29.116-2.126-3.848.562M79 42.5c-1.292 1.375-1.899 2.5-1.349 2.5s2.057-1.125 3.349-2.5 1.899-2.5 1.349-2.5-2.057 1.125-3.349 2.5m95.25-1.28c-1.943.938-3.135 2.78-1.797 2.78 1.276 0 5.547-2.434 5.547-3.161 0-1.07-.937-.975-3.75.381m12.799 3.708c-2.077 1.596-2.251 2.123-1.145 3.457 1.826 2.2 5.096.326 5.096-2.92 0-2.941-.699-3.036-3.951-.537m31.963 7.378c-3.234 1.107-5.561 4.694-3.045 4.694 1.104 0 7.156-2.983 10.033-4.946 2.151-1.468-2.447-1.301-6.988.252m-112.295 7.737c-29.213 3.06-57.315 12.371-77.564 25.7-8.112 5.34-19.127 16.836-22.872 23.872-6.032 11.334-7.519 21.213-4.777 31.738 2.794 10.73 6.282 16.781 14.644 25.406 29.827 30.766 93.717 45.234 151.11 34.22C219.041 191.041 255 162.772 255 132c0-33.069-39.488-61.975-96.403-70.568-12.469-1.883-40.102-2.623-51.88-1.389m-3.789 4.487c-42.712 6.659-75.314 28.819-82.395 56.005-4.034 15.487.484 31.646 12.52 44.782 7.288 7.953 16.07 13.721 26.447 17.37 7.708 2.71 8.657 2.808 26 2.68 16.067-.119 19.503-.462 32-3.195 35.637-7.792 38.157-8.234 47.5-8.331 9.716-.101 13.425.727 16.345 3.647 1.845 1.845 2.167 7.035.68 10.947-.84 2.208-.705 2.565.968 2.565 2.982 0 19.828-8.976 26.529-14.135 16.994-13.084 25.084-26.012 26.198-41.865.904-12.853-2.703-23.191-12.231-35.059-14.525-18.09-43.442-32.027-74.463-35.887-11.397-1.418-35.548-1.169-46.098.476m118.71 27.775c6.877 7.552 12.451 17.457 14.458 25.695 2.125 8.725 1.738 22.266-.877 30.675-2.427 7.804-10.335 20.562-15.374 24.802-1.703 1.433-2.86 2.842-2.571 3.131 1.159 1.158 15.404-14.407 18.402-20.108 10.741-20.424 7.613-43.273-8.275-60.434-3.115-3.364-7.067-7.103-8.782-8.309q-3.118-2.191 3.019 4.548M191.5 93c.34.55-.038 1-.841 1s-3.854 1.8-6.782 4-5.843 4-6.478 4-1.714.675-2.399 1.5c-1.059 1.276-.805 1.5 1.696 1.5 3.71 0 12.925-2.706 15.937-4.679 2.861-1.875 3.908-4.965 2.327-6.869-1.344-1.62-4.431-2.023-3.46-.452m-127 1.919c1.558.733.881.956-3.068 1.011-8.02.111-15.351 2.754-19.698 7.101-3.055 3.054-3.705 3.385-3.241 1.645.428-1.605.16-1.439-1.02.634-1.847 3.245-2.129 9.075-.612 12.69 1.622 3.868 4.005 6.247 12.368 12.346 7.537 5.497 9.946 8.945 8.211 11.752q-.758 1.22.535.417c2.313-1.429.537 1.761-2.038 3.663-2.922 2.157-9.616 3.729-8.552 2.008.424-.686-.708-1.712-2.903-2.629-1.979-.827-4.775-2.429-6.213-3.56-2.025-1.593-2.797-1.768-3.426-.777-.447.704-.864.83-.927.28-.176-1.526-1.703 3.698-1.816 6.211-.083 1.827.8 2.479 5.082 3.75 6.052 1.798 16.623 1.998 22.296.423 4.934-1.369 12.365-6.18 15.016-9.721 1.487-1.985 1.996-4.232 2-8.832.007-7.31-1.22-8.983-11.81-16.103-7.266-4.885-10.217-8.969-9.254-12.807 1.315-5.236 11.106-6.318 17.699-1.954 2.105 1.393 4.063 2.533 4.35 2.533s.521-1.967.521-4.372v-4.372l-4.25-.655c-10.249-1.579-11.325-1.658-9.25-.682m97 .081c1.487.639.718.879-3 .935-7.215.11-11.99 1.709-15.459 5.178-3.31 3.309-4.034 2.75-1.368-1.056.963-1.375 1.127-2.051.387-1.594-2.205 1.363-5.17 9.252-4.492 11.953.523 2.083.206 2.603-1.914 3.135-1.397.35-3.016.343-3.597-.016s-1.057-.213-1.057.324c0 .538-.273 1.689-.607 2.559-.458 1.193.034 1.582 2 1.582 3.178 0 3.272 1.316 1.071 15-2.129 13.24-5.091 23.425-8.945 30.75-3.254 6.185-3.265 6.25-1.029 6.25 3.454 0 10.499-2.754 14.131-5.525 5.044-3.847 9.113-13.272 10.997-25.475 2.72-17.62 3.539-20.34 6.318-20.99 1.561-.365 2.698-1.547 3.164-3.29.76-2.843-.687-3.733-2.736-1.684-.716.716-1.09-.366-1.208-3.492-.206-5.43 2.28-8.544 6.821-8.544 2.058 0 3.474-.758 4.586-2.456 2.059-3.142 1.147-4.562-2.872-4.474-2.69.06-2.877.206-1.191.93m-140 1.989c-9.197 6.059-18.366 21.41-19.217 32.172-1.064 13.463 6.869 28.122 21.152 39.084l4.065 3.119-3.076-3.432a779 779 0 0 0-6.776-7.432c-4.904-5.3-9.405-14.54-10.839-22.25-2.098-11.283 2.424-25.754 10.926-34.963 8.736-9.463 8.844-9.643 3.765-6.298m89.5 15.926c3.072.572 2.661.736-3.367 1.342-8.253.829-13.649 3.703-19.672 10.477-3.896 4.381-3.962 2.617-.086-2.292.894-1.132.161-.494-1.627 1.419-4.013 4.291-6.778 12.499-5.86 17.396C81.851 149.054 87.82 153 98.152 153c7.829 0 13.444-2.589 20.488-9.449 7.944-7.735 10.419-18.739 5.723-25.444-2.137-3.05-8.964-6.091-13.363-5.953l-3.5.109zm68 .167c0 .704-2.423.966-6.933.75l-6.933-.332-.658 6c-.537 4.899-3.439 19.571-6.181 31.25-.518 2.207-.356 2.25 8.588 2.25H176v-4.433c0-3.745 3.832-26.997 5.656-34.317.407-1.633.12-2.25-1.048-2.25-.884 0-1.608.487-1.608 1.082m32.5-.15c3.238.525 2.275.746-5.054 1.157-6.337.356-10.314 1.131-13.25 2.584-2.308 1.142-4.196 1.656-4.196 1.143 0-.514-.45-.656-1-.316-1.382.854-1.256 4.844.2 6.3.66.66 2.798 1.207 4.75 1.215 2.936.013 4.172-.707 7.147-4.165 5.397-6.274 9.179-3.738 5.357 3.591-1.528 2.93-1.526 2.934.506 1.095 2.48-2.244 2.654-.859.268 2.124-1.759 2.198-14.652 9.34-16.862 9.34-.667 0-2.597 1.165-4.289 2.589S182 141.661 182 141.03s-.45-.87-1-.53-1 2.117-1 3.948c0 7.282 6.978 10.606 15.914 7.581 4.077-1.38 5.086-1.455 5.086-.375 0 1.027 2.102 1.346 8.871 1.346h8.871l.686-6.25c.378-3.437 1.336-9.09 2.129-12.562.794-3.472 1.443-8.991 1.443-12.265 0-5.642-.169-6.056-3.25-7.934-2.114-1.289-4.823-1.933-7.75-1.843l-4.5.138zm-107.963 7.44c-2.523 2.523-3.826 6.265-5.729 16.453-1.053 5.64-.981 6.697.663 9.75 2.63 4.884 5.38 4.251 9.016-2.075 1.378-2.398 1.402-2.61.118-1.059-1.358 1.643-1.605 1.69-1.605.309 0-.898.374-1.863.831-2.145.783-.485 2.29-6.618 3.619-14.732.713-4.353-.8-8.873-2.971-8.873-.863 0-2.637 1.068-3.942 2.372m96.321 15.078c-5.287 3.593-6.418 7.828-2.932 10.983 2.453 2.22 4.897 1.731 6.955-1.39.89-1.352 1.088-2.133.44-1.735-.876.536-1.033-.699-.61-4.793.313-3.033.385-5.515.161-5.515s-2.03 1.103-4.014 2.45m-74.122 28.806-1.765 3.244 2.015-2.361c1.714-2.009 2.63-4.155 1.764-4.133-.138.004-1.044 1.466-2.014 3.25m119.771 13.733c-.351.567.053.733.949.39.858-.33 2.681.136 4.052 1.034 3.015 1.976 3.379 6.876.742 10.008-1.748 2.077-1.748 2.077.5.174 3.231-2.735 3.044-7.825-.385-10.522-2.867-2.256-4.901-2.632-5.858-1.084m-106.007 3.53c-35.147 8.344-50.621 10.249-67 8.248l-6-.733 3.988 1.513c5.799 2.2 22.689 3.801 32.512 3.082 4.675-.342 13.225-1.745 19-3.117 16.35-3.885 36.592-7.46 43.694-7.717 3.553-.129 6.662-.563 6.911-.964 2.198-3.557-18.612-3.753-33.105-.312m102.581-.67c-1.633 3.052-1.295 3.902.521 1.309.881-1.258 1.368-2.522 1.081-2.808s-1.007.388-1.602 1.499m3.035 3.901c.064 2.063.328 2.929.588 1.925.457-1.768.538-1.768 2.553 0 1.762 1.544 1.991 1.575 1.491.197-.326-.896-.126-2.094.443-2.663 1.513-1.513.06-3.209-2.75-3.209-2.175 0-2.428.409-2.325 3.75M246.5 183c.34.55 1.041 1 1.559 1s.941-.45.941-1-.702-1-1.559-1-1.281.45-.941 1M99.571 218.571c-.864.865-1.571 2.215-1.571 3s-.338 1.433-.75 1.437-.853 2.593-.978 5.75c-.158 3.982.067 5.282.735 4.242.529-.825.969-2.705.978-4.179.008-1.473.722-3.385 1.586-4.25.865-.864 1.09-1.571.5-1.571-1.882 0-1.148-2.832 1.152-4.443 1.222-.856 1.704-1.557 1.071-1.557s-1.858.707-2.723 1.571m101.679.357c-3.57 3.934-4.209 4.979-3.366 5.501.486.299.481 2.588-.01 5.218-.482 2.577-.661 4.9-.398 5.162.592.592 1.186-1.21 1.986-6.032.34-2.047 1.388-4.171 2.328-4.719.974-.568 1.172-1.01.46-1.028-2.027-.049-1.431-2.79.973-4.473 1.222-.856 1.672-1.557 1-1.557-.673 0-2.01.868-2.973 1.928m-159.362-.208-3.612.384-1.138 6.891C35.606 235.271 35.535 235 39.5 235c1.925 0 3.5-.45 3.5-1s-1.35-1-3-1c-3.377 0-3.349.047-2.052-3.363.625-1.643 1.904-2.638 3.75-2.916l2.802-.421-2.816-.15c-2.455-.131-2.776-.504-2.5-2.9.263-2.291.858-2.802 3.566-3.063 1.788-.173 3.25-.735 3.25-1.25 0-.516-.112-.861-.25-.769-.138.093-1.875.341-3.862.552M72 220c-2.792 2.792-2.497 4.81.994 6.797 1.646.936 2.996 2.435 3 3.331.009 2.362-2.646 4.196-5.133 3.546-1.527-.4-1.839-.252-1.078.509 1.624 1.624 6.193.049 7.142-2.463 1.029-2.725-.233-5.366-2.982-6.238-3.461-1.099-2.146-4.914 1.826-5.297 1.798-.173 3.009-.735 2.691-1.25-.983-1.59-4.361-1.034-6.46 1.065m34.667-1.333c-.367.366-.667 1.131-.667 1.7 0 .626.466.567 1.183-.15.651-.651.951-1.416.667-1.7s-.817-.217-1.183.15m100.917.974c-.527 1.373-.38 1.435.893.378 1.735-1.44 1.916-2.019.63-2.019-.491 0-1.176.739-1.523 1.641M49.459 224.5c-.161.55-.561 3.025-.89 5.5-.42 3.164-.301 4.055.401 3 .55-.825 1.006-2.443 1.015-3.595.016-2.186 2.865-5.405 4.785-5.405 1.908 0 2.302 1.724 1.356 5.936-.502 2.235-.539 4.064-.081 4.064 1.076 0 2.366-8.525 1.502-9.924-.813-1.315-7.685-.955-8.088.424m33.715.814c-2.885 3.072-2.849 7.268.076 8.773 1.857.956 2.032.927 1-.165-3.24-3.427.74-11.835 4.231-8.938 1.944 1.613 1.93 3.984-.038 6.793C87.587 233 87.337 234 87.887 234c1.495 0 4.113-4.151 4.113-6.523 0-4.716-5.224-5.997-8.826-2.163M112 224.025c-1.129.779-.82.878 1.25.397 2.332-.542 2.75-.319 2.75 1.47 0 1.441-.632 2.108-2 2.108-1.1 0-2.93.93-4.067 2.067-2.665 2.665-1.141 4.771 3.356 4.638 3.417-.1 3.174.431 3.988-8.705.248-2.779-2.581-3.837-5.277-1.975m18.2.175c-1.848 1.848-1.442 3.412 1.367 5.252 2.128 1.394 2.354 1.939 1.32 3.184-.691.832-2.124 1.274-3.211.989-1.447-.378-1.67-.219-.847.604.822.822 1.783.813 3.644-.035 3.218-1.466 3.222-3.693.01-5.797-2.834-1.857-2.014-3.951 1.84-4.701 1.92-.374 1.876-.44-.373-.56-1.402-.075-3.09.404-3.75 1.064m10.533.55c-3.899 4.327-2.934 10.323 1.639 10.187 2.089-.063 2.087-.08-.122-.968-1.503-.604-2.25-1.745-2.25-3.437 0-2.287.386-2.532 4-2.532 4.122 0 5.173-1.427 2.8-3.8-1.712-1.712-4.235-1.483-6.067.55M160 225c-3.839 3.839-2.635 9.937 1.973 9.985.967.01.709-.519-.75-1.542-2.632-1.843-2.823-4.141-.61-7.301 1.223-1.747 2.209-2.153 4.084-1.682 1.589.399 2.241.249 1.828-.42-1.041-1.684-4.371-1.194-6.525.96m11.189.039c-2.53 2.356-2.903 7.123-.702 8.95 3.984 3.307 10.914-3.62 8.632-8.628-1.349-2.96-4.943-3.106-7.93-.322M184.505 224c-.17.275-.569 2.75-.885 5.5l-.575 5 1.467-4.435c1.485-4.486 2.85-6.022 5.377-6.05 1.081-.012 1.258 1.096.797 4.985-.325 2.75-.214 5 .248 5 1.05 0 2.408-8.637 1.571-9.992-.606-.98-7.391-.987-8-.008m29.495.018c-1.17.771-.95.932 1 .735 3.051-.309 3.512 2.534.5 3.087-2.809.515-5.631 3.243-5.274 5.098.211 1.093 1.498 1.578 4.287 1.614l3.987.052.253-5.802c.217-4.964 0-5.8-1.5-5.787-.964.009-2.428.46-3.253 1.003m-109.453 1.232c-1.128 3.607-1.618 9.163-.728 8.25 1.133-1.162 2.658-9.5 1.738-9.5-.341 0-.796.563-1.01 1.25m37.481.217c-1.09 1.313-.885 1.533 1.433 1.533 1.644 0 2.55-.466 2.31-1.187-.621-1.864-2.351-2.024-3.743-.346m30.081 1.121c-2.486 3.162-2.525 3.461-.754 5.883 1.713 2.342 4.263 1.461 5.85-2.021.822-1.804.874-3.101.169-4.218-1.637-2.596-3.016-2.503-5.265.356m33.418 1.599c-.404 2.579-.523 5.279-.262 6 .26.722.803-.796 1.208-3.374s.523-5.279.262-6c-.26-.722-.803.796-1.208 3.374m-94.562 2.355c-.942 1.135-.985 1.838-.165 2.658 1.325 1.325 4.2-.607 4.2-2.822 0-1.85-2.446-1.75-4.035.164m102.071-.086c-.664.801-.917 1.927-.561 2.503.889 1.439 4.525-.565 4.525-2.494 0-1.886-2.402-1.891-3.964-.009"/><path fill="#1976D2" fill-opacity=".293" fill-rule="evenodd" d="M139.772 22.026c-10.307 1.233-13.647 2.645-15.514 6.56-1.947 4.082-1.411 4.826 2.804 3.9 2.068-.454 2.765-.975 1.964-1.47-2.161-1.335.549-2.149 11.035-3.313 11.615-1.289 13.384-.613 10.458 3.996C146.513 38.01 143.843 40 139.378 40c-4.947 0-9.378 1.459-9.378 3.089 0 .782 1.407.927 4.5.463 2.475-.371 4.5-.281 4.5.2 0 1.535-5.544 6.248-7.35 6.248-2.235 0-6.961 4.689-6.111 6.063.794 1.284 3.603-.438 12.572-7.706 3.637-2.946 7.294-5.357 8.128-5.357 2.048 0 4.287-2.658 2.688-3.191-.706-.235.447-2.868 2.958-6.752 3.923-6.07 5.006-9.412 3.365-10.383-1.818-1.075-9.291-1.388-15.478-.648m-90.957 12.1c-4.023 4.069-8.75 9.119-10.503 11.223-2.411 2.893-3.675 3.67-5.189 3.19-1.401-.445-2.32-.04-3.062 1.347C28.491 52.819 28.761 54 31 54c2.748 0 2.517 1.067-1.097 5.07-3.319 3.675-5.355 7.822-4.33 8.819.742.72 2.259-1.226 7.396-9.49 2.853-4.591 4.502-6.244 6.661-6.68 1.579-.318 3.681-.892 4.671-1.276 1.637-.633 1.741-.24 1.138 4.302-.725 5.467.263 7.02 3.399 5.342 1.033-.553 2.696-2.262 3.695-3.796 1.487-2.285 1.521-2.549.185-1.455-.897.735-2.061 1.07-2.586.745-1.561-.964.305-6.003 2.608-7.04 1.171-.527 2.599-1.99 3.173-3.25.907-1.989.77-2.291-1.041-2.291-1.588 0-1.918-.418-1.382-1.75 4.236-10.529 4.757-12.403 3.731-13.429-.788-.788-3.123.964-8.406 6.305m2.518-.647c-2.942 2.061-10.708 11.48-10.027 12.161.308.307 2.097.052 3.975-.568 2.85-.94 3.842-2.116 5.992-7.099C52.691 34.688 53.759 32 53.648 32s-1.153.666-2.315 1.479m44.649 2.949c-1.915 1.336-5.622 4.682-8.238 7.435-5.14 5.41-8.277 7.016-10.095 5.165-.869-.885-.54-1.645 1.351-3.119 5.607-4.373 7-5.831 7-7.333C86 37.562 85.109 37 83.503 37 80.55 37 73 43.428 73 45.942c0 .94-1.131 2.772-2.513 4.07-1.976 1.857-2.774 2.101-3.732 1.143s-.74-2.12 1.016-5.437c1.229-2.32 2.233-4.542 2.232-4.937-.005-1.125-9.054-.13-10.319 1.135-.622.622-1.156 2.976-1.186 5.23-.044 3.282.15 3.743.974 2.314 2.599-4.51 7.723-7.692 5.973-3.71-.423.962-.968 3.438-1.212 5.5-.377 3.192-.156 3.75 1.488 3.75 1.062 0 2.988-1.125 4.28-2.501 2.344-2.495 2.353-2.496 4.213-.5C75.239 53.1 76.533 54 77.089 54c1.721 0 6.324-2.694 8.263-4.837l1.848-2.042 2.409 2.69 2.408 2.689 3.477-4 3.476-4 .015 3.191c.021 4.514 1.367 4.816 5.455 1.227 4.11-3.608 4.768-5.756 1.009-3.292-3.329 2.18-5.202.65-3.377-2.76.691-1.292 1.419-3.815 1.616-5.608.312-2.834.061-3.258-1.932-3.258-1.261 0-3.859 1.093-5.774 2.428m58.458.638c-.925 1.023-1.438 2.496-1.139 3.275s.045 1.913-.562 2.52c-.608.608-.834 1.377-.502 1.709s1.366-.561 2.298-1.983c1.062-1.621 2.613-2.587 4.153-2.587h2.457l-2.072 2.635c-2.212 2.811-2.742 6.834-1.04 7.885.568.351 2.513-.235 4.322-1.302 3.286-1.939 3.291-1.939 4.217.17 1.304 2.968 6.571 3.305 10.8.691l3.32-2.051 1.139 2.5c1.819 3.993 5.124 4.961 9.751 2.859 2.155-.98 4.196-1.935 4.535-2.123s.886 1.001 1.214 2.643c.922 4.607 3.615 5.479 9.615 3.114 4.774-1.882 5.054-1.893 5.054-.206 0 3.517 2.012 4.22 6.106 2.131 4.877-2.488 5.083-2.456 3.7.581-1.632 3.582-.084 4.588 4.569 2.97 5.181-1.801 7.168-3.756 2.965-2.915-4.363.873-5.39-1.282-2-4.198 1.463-1.258 2.66-2.985 2.66-3.836s.436-1.548.969-1.548.709-.675.393-1.5c-1.204-3.136-14.281-.333-19.044 4.081-2.215 2.053-3.543 2.458-7.264 2.216-3.777-.246-4.554-.636-4.554-2.284 0-2.49 5.336-5.397 6.487-3.534.872 1.41 4.613-.494 5.497-2.798 1.681-4.38-4.267-3.801-12.484 1.216-8.026 4.899-9.051 5.041-12.942 1.793l-3.366-2.811 3.711-2.189c2.041-1.205 3.911-2.19 4.154-2.19 1.038 0 .319 3.732-1.114 5.777-2.121 3.029.001 2.87 3.102-.232C196.04 45.05 197.117 38 195.002 38c-.548 0-3.136 1.521-5.75 3.38-6.039 4.296-12.622 7.62-15.09 7.62-1.054 0-2.474-.67-3.154-1.49-1.022-1.232-.827-1.654 1.128-2.437 2.107-.843 2.146-.957.364-1.043-1.89-.091-1.87-.205.361-2.063 1.298-1.082 3.323-1.952 4.5-1.934 2.113.033 2.11.058-.222 2-2.685 2.237-2.334 2.469 1.259.832 2.87-1.308 4.121-3.746 2.667-5.2-1.884-1.884-9.183 1.273-13.709 5.929-4.181 4.303-6.635 5.382-7.831 3.446-.326-.527 1.068-2.797 3.097-5.043 4.142-4.585 3.803-5.504-2.311-6.267-3.262-.408-4.56-.112-5.871 1.336m-59.29 3.94c-2.474 1.792-4.15 3.812-4.15 5 0 3.075 1.942 2.389 6.154-2.172 5.965-6.462 4.963-7.875-2.004-2.828m-15.844.409c-1.543 1.328-2.483 2.739-2.087 3.135C78.249 45.583 83 42.236 83 40.477c0-1.987-.419-1.881-3.694.938m143.224 9.757c-2.733.521-5.546 1.426-6.25 2.01-1.873 1.555-1.562 3.818.524 3.818C218.575 57 228 51.547 228 50.522c0-.287-.113-.472-.25-.41-.137.061-2.486.538-5.22 1.06M115.5 59.698c-25.086 1.385-53.852 8.728-72.964 18.624-10.155 5.258-21.701 13.824-27.817 20.637C5.845 108.846-.18 122.676.126 132.46c.095 3.026.351 2.295 1.018-2.908 1.951-15.223 10.875-27.521 29.37-40.477 6.894-4.829 9.651-5.445 3.964-.886C25.756 95.181 14 108.74 14 111.808c0 .521-.622 1.463-1.383 2.095-.76.631-2.397 4.304-3.638 8.162-3.443 10.707-2.491 16.642 4.647 28.982 5.555 9.603 11.609 16.838 20.374 24.35 5.189 4.448 1.927 2.744-7.5-3.916-11.398-8.053-19.741-18.433-23.426-29.147-1.104-3.209-2.022-4.813-2.041-3.564-.047 3.233 4.212 13.272 7.914 18.653C23.784 178.988 54.612 195.01 95 202.145c9.557 1.689 57.217 1.679 64.5-.013 2.75-.639 7.74-1.593 11.088-2.12 7.992-1.258 31.06-8.963 39.912-13.331 8.784-4.335 22.544-14.115 28.69-20.391 10.089-10.303 16.482-25.346 15.572-36.643-1.831-22.744-21.989-43.735-54.657-56.917-11.824-4.77-29.332-9.383-42.605-11.224-9.905-1.374-32.359-2.341-42-1.808m-2.008 3.329c-38.342 3.16-71.455 19.536-86.69 42.873-5.952 9.118-8.198 16.295-8.168 26.1.04 12.984 5.666 25.234 16.723 36.41 12.381 12.515 26.65 17.834 48.143 17.944 13.975.072 24.723-1.395 47.5-6.485 19.96-4.461 28.75-5.875 36-5.792 12.392.143 17.452 4.133 15.118 11.922-1.399 4.671-1.408 6.001-.038 6.001 2.783 0 20.833-9.575 27.48-14.578 12.437-9.36 20.231-19.463 25.005-32.411.712-1.931 1.326-2.77 1.365-1.865.038.906-1.248 4.886-2.859 8.844-5.136 12.62-11.794 20.708-23.376 28.396-8.539 5.668-19.122 10.854-20.118 9.858-.317-.318-.577-.022-.577.657 0 4.24 24.915-9.487 36.594-20.161 12.268-11.212 16.843-21.88 16.826-39.24-.011-11.371-2.529-20.904-7.375-27.918-6.436-9.315-21.205-21.127-34.045-27.231-9.407-4.471-19.749-8.374-22-8.302-.825.027 1.889 1.308 6.03 2.849 17.031 6.333 27.728 12.833 36.223 22.008 5.37 5.801 13.758 20.429 13.738 23.96-.005.899-1.645-1.644-3.645-5.651-12.863-25.772-47.63-44.524-89.346-48.188-12.563-1.103-15.115-1.103-28.508 0M173 67c.825.533 1.95.969 2.5.969s.325-.436-.5-.969-1.95-.969-2.5-.969-.325.436.5.969m19.488 25.981c.326.527-.935 1.597-2.802 2.377s-5.327 2.818-7.69 4.53-4.877 3.112-5.587 3.112-1.611.519-2.003 1.152c-1.572 2.543 15.433-1.889 18.844-4.911 2.167-1.921 2.284-5.822.198-6.623-.863-.331-1.289-.17-.96.363M164 96c0 .55-2.587 1.003-5.75 1.006-11.502.011-16.183 2.975-18.524 11.73-1.008 3.769-1.634 4.456-4.968 5.455-3.693 1.106-4.729 3.452-1.4 3.17 1.289-.109 1.671.857 1.778 4.5.08 2.706.323 3.597.585 2.139.247-1.375.869-2.936 1.382-3.469.998-1.034 1.001-1.063-1.672 14.469-3.372 19.591-7.601 31.709-11.416 32.706-1.108.29-2.015.925-2.015 1.411 0 2.558 10.609-1.234 15.742-5.628 6.191-5.3 8.631-12.521 12.495-36.989 1.129-7.149 1.508-8.035 3.57-8.327 2.409-.342 5.103-4.635 3.719-5.927-.44-.41-1.001-.183-1.246.504s-1.339 1.25-2.431 1.25c-1.416 0-1.838-.501-1.476-1.75a286 286 0 0 0 1.578-5.897c1.091-4.227 2.453-5.353 6.476-5.353 2.351 0 5.573-2.792 5.573-4.829 0-.644-.45-1.171-1-1.171s-1 .45-1 1m-88.329 1.415c-.418 1.09-1.392 1.206-4.355.518-5.24-1.216-16.018-1.143-20.637.139C45.726 99.448 39 105.486 39 108.557c0 2.87-1.681 4.111-2.308 1.705-.253-.969-.512-.255-.576 1.587-.184 5.307 2.666 9.874 9.27 14.856 8.998 6.787 12.612 10.434 12.629 12.741.013 1.693.186 1.79.985.554.821-1.271.972-1.222.985.316.064 7.58-12.391 11.395-20.295 6.217-3.648-2.391-2.724-3.119 1.31-1.033 1.752.906 3.444 1.389 3.76 1.074.315-.316.111-.574-.454-.574s-2.626-1.085-4.58-2.411l-3.554-2.412-.652 2.6c-.359 1.43-1.41 3.16-2.336 3.846-1.495 1.107-1.255 1.427 2.141 2.856 12.539 5.278 31.889 1.051 38.65-8.444 2.481-3.484 3.097-12.163 1.125-15.847-1.191-2.227-15.907-12.714-16.711-11.91-.247.246 2.503 2.371 6.111 4.722 7.027 4.578 8.354 6.54 1.877 2.773-6.731-3.914-10.475-7.094-9.246-7.854.809-.5.666-1.371-.498-3.033-2.46-3.512-2.063-7.403 1.002-9.813 3.639-2.863 8.171-2.594 14.763.874L78 104.893v-3.887c0-3.988-1.368-6.096-2.329-3.591m104.049 15.917c-.623 1.584-1.685 1.787-7.843 1.5l-7.124-.332.605 6.45c.841 8.982-2.634 26.849-5.688 29.238-3.004 2.351-.956 2.985 8.424 2.609l7.406-.297.616-8c.339-4.4 1.607-12.85 2.818-18.777 2.108-10.316 2.52-16.798.786-12.391m-62.161 1.136c1.067.808 2.391 1.468 2.941 1.468s.126-.66-.941-1.468c-1.068-.807-2.391-1.468-2.941-1.468s-.127.661.941 1.468m100.569.219c1.221 1.502 1.152 1.598-.628.87-6.716-2.746-22.592-.698-27.049 3.489-1.155 1.085-2.403 1.668-2.775 1.296s-.676-.015-.676.791c0 2.323 2.148 3.867 5.38 3.867 2.256 0 4.025-1.122 7.278-4.615 4.727-5.076 7.332-5.312 7.357-.666.012 2.163.231 2.448.985 1.281.759-1.175.973-.92.985 1.173.029 5.185-4.595 8.741-21.27 16.359-2.081.951-4.267 2.631-4.857 3.733-.864 1.615-1.244 1.736-1.95.62-.612-.966-.882-.435-.893 1.754-.008 1.727.846 4.202 1.899 5.5 1.628 2.009 2.783 2.352 7.75 2.302 3.48-.035 7.148-.752 9.086-1.776 3.172-1.675 3.25-1.667 3.25.35 0 1.944.485 2.049 8.25 1.775l8.25-.29.65-6.5c.358-3.575 1.371-9.969 2.25-14.208.88-4.239 1.6-9.016 1.6-10.615 0-2.973-3.306-8.177-5.195-8.177-.606 0-.469.714.323 1.687m-119.675 2.569c-8.946 4.959-12.159 8.792-15.299 18.244-.959 2.887-1.002 2.906-1.161.5-.165-2.496-.166-2.495-1.001.28-1.73 5.758 1.636 12.225 7.776 14.942 15.784 6.981 37.351-7.891 37.197-25.65-.049-5.563-2.122-9.005-5.634-9.351-14-1.379-17.854-1.196-21.878 1.035m5.77 1.393c-4.617 1.935-9.502 23.9-6.201 27.878.855 1.03.885 1.473.1 1.473-.617 0-1.122.45-1.122 1 0 1.425 6.181 1.179 8.158-.325 3.98-3.028 8.69-17.793 7.572-23.74-.372-1.977-.514-1.777-.757 1.065-.243 2.847-.409 2.473-.886-2-.531-4.973-.827-5.518-3.087-5.693-1.375-.106-3.075.048-3.777.342m61.856.934c.048 1.165.285 1.402.604.605.289-.722.253-1.585-.079-1.917s-.568.258-.525 1.312m69 1c.048 1.165.285 1.402.604.605.289-.722.253-1.585-.079-1.917s-.568.258-.525 1.312m-101.496 12.5c-.375 2.833-.482 5.352-.236 5.598s.765-1.861 1.153-4.681.494-5.339.236-5.597c-.258-.259-.777 1.848-1.153 4.68M110.158 132c0 1.375.227 1.938.504 1.25.278-.687.278-1.812 0-2.5-.277-.687-.504-.125-.504 1.25m52.921-.417c.048 1.165.285 1.402.604.605.289-.722.253-1.585-.079-1.917s-.568.258-.525 1.312m35.56 4.737c-4.93 4.591-5.599 6.577-3.068 9.109 1.429 1.428 1.411 1.571-.2 1.571-1.258 0-1.461.31-.701 1.07 1.671 1.671 8.234.006 9.881-2.507 1.721-2.627 3.23-12.929 1.547-10.563-.885 1.244-1.07 1.116-1.083-.75-.021-3.189-1.108-2.836-6.376 2.07m37.519 2.68c0 1.375.227 1.938.504 1.25.278-.687.278-1.812 0-2.5-.277-.687-.504-.125-.504 1.25m-104 3c0 1.375.227 1.938.504 1.25.278-.687.278-1.812 0-2.5-.277-.687-.504-.125-.504 1.25m28.921-.417c.048 1.165.285 1.402.604.605.289-.722.253-1.585-.079-1.917s-.568.258-.525 1.312m-128 2c.048 1.165.285 1.402.604.605.289-.722.253-1.585-.079-1.917s-.568.258-.525 1.312M150 179.005c-3.025.409-12.7 2.328-21.5 4.264s-18.925 4.131-22.5 4.876c-13.255 2.763-37.382 1.425-49.626-2.752-1.327-.452-1.166-.113.551 1.164 5.12 3.805 19.52 6.623 36.575 7.158 14.501.455 17.265.253 29.5-2.163 7.425-1.466 15.75-3.283 18.5-4.038 2.75-.754 9.39-2.132 14.755-3.062 8.135-1.409 10.269-1.478 12.843-.411 2.576 1.066 3.234 1.045 3.979-.131 1.565-2.473 1.004-3.686-2.226-4.812-3.461-1.207-12.313-1.246-20.851-.093m95.232 5.495c0 2.2.206 3.213.457 2.25.562-2.149 1.255-2.208 2.701-.232.929 1.271 1.11 1.133 1.11-.841 0-1.705-.46-2.239-1.659-1.925-1.011.264-1.844-.286-2.134-1.409-.261-1.014-.475-.043-.475 2.157M38.656 219.75c-.254.412-.712 3-1.017 5.75-.306 2.75-.322 4.239-.036 3.309.306-.994 1.836-1.856 3.709-2.09l3.188-.399-3.145-.16c-3.06-.156-3.123-.254-2.355-3.66.758-3.362.636-4.341-.344-2.75M98 223c0 .55.477 1 1.059 1s.781-.45.441-1-.816-1-1.059-1-.441.45-.441 1m43.736 1.25c-2.321 1.763-3.626 5.875-2.618 8.25l.849 2-.142-2c-.256-3.583 1.287-7.242 3.504-8.315 1.194-.577 1.695-1.08 1.112-1.117-.582-.038-1.799.495-2.705 1.182m47.264-.857c0 .216.698.661 1.552.989.89.341 1.291.173.941-.393-.587-.951-2.493-1.406-2.493-.596m10.813.29c.721.289 1.584.253 1.916-.079s-.258-.568-1.312-.525c-1.165.048-1.402.285-.604.604m16.531.024c1.539.397 1.731 1.082 1.161 4.134-.376 2.013-1.149 4.222-1.717 4.909-.746.903-.62 1.25.454 1.25 1.008 0 1.689-1.48 2.117-4.603.711-5.185.275-6.449-2.168-6.281-1.43.098-1.406.189.153.591M50 225.059c0 .582.45.781 1 .441s1-.816 1-1.059-.45-.441-1-.441-1 .477-1 1.059m7.158.941c0 1.375.227 1.938.504 1.25.278-.687.278-1.812 0-2.5-.277-.687-.504-.125-.504 1.25m16.092.205c2.994 2.58 3.443 4.618 1.5 6.797-1.063 1.192-.989 1.204.5.077 2.669-2.019 2.099-4.712-1.5-7.094l-3.25-2.15zm9.163.288c-1.685 2.571-1.281 7.507.615 7.507.563 0 .448-.87-.27-2.023-1.042-1.676-.966-2.533.445-5 2.065-3.608 1.488-3.961-.79-.484m7.359-1.046c.658 1.247.695 2.826.1 4.389-1.376 3.62-.352 3.737 1.142.13 1.122-2.709 1.06-3.309-.494-4.782-1.676-1.588-1.719-1.573-.748.263m80.641 1.046c-1.685 2.571-1.281 7.507.615 7.507.563 0 .448-.87-.27-2.023-1.042-1.676-.966-2.533.445-5 2.065-3.608 1.488-3.961-.79-.484m7.372.498c.306 2.08-.157 3.804-1.416 5.281-1.796 2.107-1.796 2.137-.015.752 2.83-2.2 4.011-6.088 2.353-7.745-1.166-1.167-1.306-.907-.922 1.712m7.215-1.932c0 .582.45.781 1 .441s1-.816 1-1.059-.45-.441-1-.441-1 .477-1 1.059m21.079 1.524c.048 1.165.285 1.402.604.605.289-.722.253-1.585-.079-1.917s-.568.258-.525 1.312M115.6 227.6c-.356.927-.422 1.911-.147 2.186s.791-.259 1.147-1.186.422-1.911.147-2.186-.791.259-1.147 1.186m30.9-.6c-.34.55-.141 1 .441 1s1.059-.45 1.059-1-.198-1-.441-1-.719.45-1.059 1m-97.342 2c0 1.375.227 1.938.504 1.25.278-.687.278-1.812 0-2.5-.277-.687-.504-.125-.504 1.25m81.842-.757c0 .172.9 1.083 2 2.025s2 1.283 2 .757-.9-1.436-2-2.025-2-.93-2-.757M158.158 230c0 1.375.227 1.938.504 1.25.278-.687.278-1.812 0-2.5-.277-.687-.504-.125-.504 1.25m39.921-.417c.048 1.165.285 1.402.604.605.289-.722.253-1.585-.079-1.917s-.568.258-.525 1.312m7.079 1.417c0 1.375.227 1.938.504 1.25.278-.687.278-1.812 0-2.5-.277-.687-.504-.125-.504 1.25M36 232.5c0 .825.436 1.5.969 1.5s.709-.675.393-1.5c-.317-.825-.753-1.5-.969-1.5s-.393.675-.393 1.5m20.079.083c.048 1.165.285 1.402.604.605.289-.722.253-1.585-.079-1.917s-.568.258-.525 1.312M109 232.5c0 .825.436 1.5.969 1.5s.709-.675.393-1.5c-.317-.825-.753-1.5-.969-1.5s-.393.675-.393 1.5m5.211.038c-1.066 1.208-1.022 1.462.25 1.462.846 0 1.539-.675 1.539-1.5 0-1.824-.15-1.82-1.789.038"/></svg>