<svg xmlns="http://www.w3.org/2000/svg" width="256" height="256"><path fill="#1976D2" fill-opacity=".016" fill-rule="evenodd" d="M0 128.004v128.004l128.25-.254 128.25-.254.254-127.75L257.008 0H0zm.485.496c0 70.4.119 99.053.265 63.672s.146-92.98 0-128S.485 58.1.485 128.5"/><path fill="#1976D2" fill-opacity=".295" fill-rule="evenodd" d="M196.508 87.928c-14.846 14.806-27.892 28.642-28.99 30.746-2.688 5.147-2.66 14.445.059 19.6 1.095 2.076 13.879 15.688 28.409 30.25C218.678 191.265 222.823 195 225.369 195c2.464 0 5.22-2.232 16.298-13.202 18.019-17.842 18.244-15.36-3.349-36.981l-16.683-16.704 16.933-17.048c9.312-9.377 17.079-17.978 17.259-19.112.415-2.622-1.493-4.953-4.056-4.953-1.102 0-5.192 3.111-9.203 7-7.076 6.861-9.956 8.212-12.368 5.8-2.563-2.563-1.173-5.566 5.8-12.524 6.862-6.849 8.214-9.662 5.8-12.076-2.124-2.124-5.323-1.288-8.8 2.3-3.865 3.987-7.2 4.48-9.368 1.385-1.866-2.664-1.244-4.439 3.192-9.113 3.291-3.467 3.444-3.903 2.188-6.25-.781-1.459-2.227-2.52-3.431-2.518-1.385.003-11.108 9.008-29.073 26.924M0 104.469C0 107.922.089 108 4 108h4v25h8v-25h4.563c4.546 0 4.563-.012 4.25-3.25l-.313-3.25-12.25-.281L0 100.938zm28.667-2.802c-.367.366-.667 7.566-.667 16V133h8v-32h-3.333c-1.834 0-3.634.3-4 .667m19.722 1.238c-7.404 4.514-10.125 13.382-6.572 21.415 2.807 6.345 6.842 8.671 15.051 8.676 6.065.004 6.552-.18 10.25-3.878 2.135-2.136 3.882-4.611 3.882-5.5 0-2.386-6.535-2.129-9.727.382-5.82 4.578-12.273 1.219-12.273-6.389 0-2.698.677-5.226 1.758-6.56 2.373-2.931 7.57-3.031 10.579-.204 2.792 2.623 9.663 3.062 9.663.618 0-2.699-3.19-6.521-7.113-8.523-4.853-2.475-11.474-2.491-15.498-.037M76 116.94V133h8v-13.113l4.834 6.306c4.751 6.198 4.926 6.312 10.11 6.613l5.276.306-6.11-7.477c-3.36-4.113-6.11-7.963-6.11-8.555 0-.593 2.466-4.116 5.48-7.829s5.49-7.089 5.5-7.501c.011-.412-1.969-.75-4.4-.75-4.292 0-4.561.192-9.25 6.592l-4.83 6.592-.5-6.342-.5-6.342-3.75-.31-3.75-.311zm31.667-15.273c-.367.366-.667 7.566-.667 16V133h20v-6h-12v-7h5c4.889 0 5-.067 5-3s-.111-3-5-3-5-.067-5-3v-3h12v-7h-9.333c-5.134 0-9.634.3-10 .667M130 104.469c0 3.453.089 3.531 4 3.531h4v25h8v-25h4.563c4.546 0 4.563-.012 4.25-3.25l-.313-3.25-12.25-.281-12.25-.281zM33 144c-1.1 1.1-2 3.125-2 4.5 0 2.953 3.214 6.5 5.889 6.5 1.039 0 2.952-.867 4.25-1.926 2.14-1.746 2.196-1.99.598-2.612-.969-.377-2.432-.13-3.25.549-1.18.979-1.797.977-2.987-.011-3.256-2.702-.282-7.024 3.457-5.023 2.989 1.599 4.569.262 2.453-2.076-2.231-2.466-5.888-2.423-8.41.099m16.432-.684c-.303.791-.412 3.596-.242 6.233.338 5.234 2.297 7.011 3.662 3.322l.85-2.297 1.184 2.213c.651 1.217 1.844 2.213 2.649 2.213 1.735 0 1.807-.493.442-3.043-.729-1.362-.659-2.493.243-3.937.936-1.499.98-2.482.171-3.773-1.413-2.257-8.18-2.96-8.959-.931M66 148.5v6.5h3.5c2.444 0 3.5-.452 3.5-1.5 0-.833-.889-1.5-2-1.5-1.1 0-2-.398-2-.883 0-.486.9-1.119 2-1.407 1.1-.287 2-1.015 2-1.616S72.1 147 71 147s-2-.45-2-1 .9-1 2-1c1.111 0 2-.667 2-1.5 0-1.048-1.056-1.5-3.5-1.5H66zm17.677-5.786c-2.01 3.252-4.343 11.374-3.429 11.939.58.359 1.579-.064 2.219-.939 1.331-1.82 3.597-1.735 5.956.222 2.733 2.268 3.1.248 1.041-5.727-1.814-5.261-4.409-7.725-5.787-5.495M97 143.5c0 .825.675 1.5 1.5 1.5 1.108 0 1.5 1.16 1.5 4.441 0 4.009 1.304 6.588 2.651 5.242.284-.285.77-2.467 1.08-4.85.309-2.383 1.181-4.698 1.937-5.144 2.387-1.41.377-2.689-4.227-2.689-3.281 0-4.441.392-4.441 1.5m16 5c0 5.111.321 6.5 1.5 6.5s1.5-1.389 1.5-6.5-.321-6.5-1.5-6.5-1.5 1.389-1.5 6.5m9.577-4.25c.392 1.238 1.546 4.196 2.564 6.574 2.431 5.679 4.631 5.259 6.946-1.324 2.206-6.274 2.28-7.5.453-7.5-.845 0-1.982 1.744-2.7 4.141l-1.241 4.14-1.758-4.14c-1.895-4.462-5.597-6.104-4.264-1.891m17.832-.873c-.291.757-.389 3.57-.219 6.25.308 4.845.331 4.875 4.06 5.183 2.864.237 3.75-.058 3.75-1.25 0-.893-.855-1.56-2-1.56-1.1 0-2-.45-2-1s.648-1 1.441-1c2.396 0 2.911-2.095.66-2.684-2.67-.698-2.74-2.316-.101-2.316 1.111 0 2-.667 2-1.5 0-1.976-6.838-2.086-7.591-.123M53 146c0 .55.702 1 1.559 1s1.281-.45.941-1-1.041-1-1.559-1-.941.45-.941 1m32.079 2.583c.048 1.165.285 1.402.604.605.289-.722.253-1.585-.079-1.917s-.568.258-.525 1.312m157.576 13.246c-2.001 2.21-2.146 4.171-.31 4.171 1.601 0 4.655-3.168 4.655-4.829 0-1.776-2.482-1.401-4.345.658m-7.176 7.195c-1.383 1.527-1.549 2.306-.679 3.176s1.649.704 3.176-.679c1.113-1.007 2.024-2.436 2.024-3.176 0-1.995-2.432-1.63-4.521.679m-7 7c-2.464 2.722-.724 4.536 2.312 2.41 2.44-1.709 2.971-4.434.864-4.434-.74 0-2.169.911-3.176 2.024m-6.52 6.52c-1.519 1.617-1.992 2.823-1.355 3.46 1.213 1.213 5.396-1.501 5.396-3.502 0-2.5-1.669-2.483-4.041.042"/><path fill="#1976D2" fill-opacity=".237" fill-rule="evenodd" d="M219.583 78.233c-1.356 2.069-1.488 3.075-.619 4.7 1.278 2.388 5.47 2.776 7.546.7 1.157-1.157.987-1.541-1.1-2.492-1.358-.619-2.836-2.118-3.285-3.333l-.817-2.208zm6.084 19.434c-.367.366-.667 1.926-.667 3.464 0 3.988 3.257 5.586 6.736 3.306l2.602-1.704-2.551-1.336c-1.402-.735-2.814-2.025-3.137-2.867-.62-1.615-1.87-1.977-2.983-.863m-173.725 4.281c-4.583 1.391-6.726 2.966-8.966 6.591-1.828 2.957-2.133 4.656-1.794 9.98.439 6.898 2.452 10.18 8.018 13.076 6.457 3.359 16.647.65 20.108-5.345l1.876-3.25h-4.47c-2.753 0-4.947.576-5.714 1.5-1.815 2.187-8.306 1.924-10.43-.422-.957-1.058-1.973-3.667-2.259-5.799-.429-3.194-.046-4.441 2.173-7.078 3.181-3.78 6.973-4.202 10.789-1.201 2.612 2.054 9.727 2.811 9.727 1.035 0-2.19-6.401-8.052-9.832-9.005-4.179-1.161-5.628-1.174-9.226-.082M.184 104.75c.283 2.461.763 2.782 4.566 3.057l4.25.308V133h7v-25h4c3.778 0 4-.167 4-3v-3H-.133zM29 117.5V133h7v-31h-7zm47 0V133h7v-6.5c0-3.575.363-6.5.807-6.5s2.955 2.925 5.58 6.5c4.642 6.322 4.895 6.5 9.252 6.5 5.184 0 5.278.355-2.441-9.251l-5.424-6.75 5.613-6.861c3.087-3.773 5.613-7.148 5.613-7.499 0-.352-1.789-.639-3.976-.639-3.732 0-4.27.397-8.75 6.459-2.626 3.552-5.112 6.477-5.524 6.5S83 112.075 83 108.5V102h-7zm31 0V133h20v-6h-12v-7h5c4.889 0 5-.067 5-3s-.111-3-5-3c-4.87 0-5-.077-5-2.95 0-2.89.117-2.956 5.75-3.25 5.443-.284 5.767-.447 6.066-3.05l.317-2.75H107zm23.184-12.75c.283 2.461.763 2.782 4.566 3.057l4.25.308V133h7v-25h4c3.778 0 4-.167 4-3v-3h-24.133zm80.669 34c-5.286 5.363-10.096 10.65-10.689 11.75-.962 1.782-1.057 1.674-.872-1l.208-3-9.308-.859c-5.119-.473-9.581-.585-9.917-.25-1.721 1.721-.673 5.311 2.394 8.203 1.832 1.728 3.331 3.652 3.331 4.274 0 .623.443 1.132.984 1.132s4.022 3.262 7.736 7.25 11.483 11.903 17.265 17.59c13.689 13.465 12.766 13.565 29.423-3.188 6.82-6.86 12.697-13.409 13.06-14.552.371-1.167.078-2.91-.667-3.973-2.17-3.099-31.662-33.127-32.535-33.127-.442 0-5.128 4.387-10.413 9.75m-177.398 5.705c-2.861 2.86-3.034 4.273-.898 7.322 1.826 2.608 6.554 2.999 8.462.7 1.093-1.317.825-1.486-1.987-1.25-3.641.306-5.778-1.841-4.681-4.7.534-1.392 1.378-1.613 4.16-1.091 4.141.777 4.803-.986.924-2.461-3.379-1.284-3.163-1.338-5.98 1.48m64.015-1.407c-.378.611.248 1.327 1.429 1.636 1.732.453 2.101 1.32 2.101 4.933 0 2.41.45 4.383 1 4.383s1-2.025 1-4.5c0-3.333.389-4.5 1.5-4.5.825 0 1.499-.562 1.499-1.25-.002-1.578-7.601-2.203-8.529-.702m44.243-.427c-.392.392-.713 3.112-.713 6.046V154h3.5c1.925 0 3.5-.45 3.5-1s-1.125-1-2.5-1c-2.981 0-3.344-1.967-.5-2.71 1.1-.288 2-.921 2-1.407 0-.485-.9-.883-2-.883s-2-.45-2-1 1.162-1 2.583-1c1.619 0 2.43-.467 2.173-1.25-.459-1.398-4.938-2.235-6.043-1.129M50 148.5c0 5.488 1.644 7.578 2.721 3.459l.534-2.041 1.429 2.041c1.852 2.645 3.641 2.64 2.801-.007-.358-1.126-.126-2.68.515-3.452s.873-2.326.515-3.452c-.51-1.607-1.497-2.048-4.582-2.048H50zm16 0v5.5h3.5c1.925 0 3.5-.45 3.5-1s-.9-1-2-1c-2.744 0-2.535-2.756.25-3.303l2.25-.443-2.25-.744c-2.789-.921-2.947-2.51-.25-2.51 1.1 0 2-.45 2-1s-1.575-1-3.5-1H66zm16.087-1.396c-.676 2.257-1.471 4.732-1.765 5.5-.322.838.107 1.396 1.071 1.396.884 0 1.607-.45 1.607-1s1.125-1 2.5-1 2.5.45 2.5 1 .705 1 1.567 1c1.679 0 1.485-1.238-1.2-7.663-1.992-4.768-4.722-4.435-6.28.767M113 148.5c0 4.222.348 5.5 1.5 5.5s1.5-1.278 1.5-5.5-.348-5.5-1.5-5.5-1.5 1.278-1.5 5.5m10.322-4.104c.294.768 1.095 3.264 1.779 5.547 1.741 5.81 4.473 5.248 7.005-1.443 2.26-5.971 2.219-5.5.477-5.5-.779 0-2.066 1.912-2.859 4.25l-1.443 4.25-1.299-4.25c-.747-2.446-1.913-4.25-2.747-4.25-.829 0-1.22.597-.913 1.396M53 146.583c0 1.766 2.153 1.459 2.771-.395.218-.654-.317-1.188-1.188-1.188S53 145.713 53 146.583m121.354-.896c1.005 1.006 4.646 1.12 4.646.146 0-.458-1.2-.833-2.667-.833s-2.357.309-1.979.687m-89.703 1.779c-.762 1.987-.301 2.943 1.152 2.388.511-.195.618-1.221.238-2.281-.657-1.831-.726-1.836-1.39-.107m157.523 13.848c-2.569 2.735-2.753 4.25-.618 5.069.928.356 2.576-.425 4.087-1.935 2.049-2.049 2.301-2.81 1.322-3.99-1.628-1.962-2.246-1.852-4.791.856m-7.162 7.173c-2.205 2.347-2.269 2.684-.79 4.163s1.824 1.395 4.267-1.049c1.463-1.462 2.476-3.208 2.252-3.879-.728-2.186-3.276-1.846-5.729.765m-6.942 6.939c-2.477 2.637-2.068 4.574.966 4.574 2.176 0 5.471-4.37 4.491-5.956-1.052-1.703-3.03-1.202-5.457 1.382m-6.768 6.824c-2.307 2.535-2.015 4.75.626 4.75 2.38 0 5.456-3.557 4.725-5.463-.839-2.186-2.972-1.902-5.351.713"/><path fill="#1976D2" fill-opacity=".607" fill-rule="evenodd" d="M0 104.443c0 2.158.494 2.478 4.25 2.75l4.25.307.28 12.75.28 12.75H16v-26h4c3.6 0 4-.25 4-2.5V102H0zM29 117.5V133h7v-31h-7zm21-14.794c-4.97 1.817-9.001 8.309-8.998 14.494.003 8.721 5.356 14.744 13.827 15.558 5.922.569 11.824-2.207 14.568-6.852L71.113 123h-3.728c-2.05 0-4.467.67-5.372 1.488-.904.819-3.059 1.771-4.789 2.117-2.621.524-3.649.124-6.184-2.411-8.183-8.183 1.247-21.263 10.233-14.194 1.478 1.163 4.057 2 6.16 2h3.618l-1.574-3.044c-2.308-4.463-7.027-6.963-12.977-6.873-2.75.041-5.675.322-6.5.623M76 117.5V133h6.912l.294-7.25.294-7.25 5.5 7.217c5.313 6.97 5.647 7.217 9.816 7.25l4.317.033-4.817-6.043c-8.414-10.557-8.139-9.219-3.188-15.518 7.879-10.024 7.687-9.439 3.111-9.439-3.773 0-4.281.376-8.777 6.5-2.624 3.575-5.152 6.5-5.617 6.5S83 112.075 83 108.5V102h-7zm32 0V133h18v-3c0-2.97-.056-3-5.5-3H115v-7h5c4.788 0 5-.117 5.001-2.75 0-2.68-.128-2.741-5-2.403l-5.001.346V107h5.5c5.2 0 5.5-.136 5.5-2.5 0-2.481-.067-2.5-9-2.5h-9zm22-13.057c0 2.158.494 2.478 4.25 2.75l4.25.307.28 12.75.28 12.75H146v-26h4c3.6 0 4-.25 4-2.5V102h-24zm81.3 34.845c-6.64 6.825-10.427 11.566-11.264 14.103-1.67 5.06-.926 15.147 1.28 17.354.926.926 1.713 1.25 1.748.719.612-9.247 2.857-14.29 9.173-20.606 2.62-2.62 4.763-5.024 4.763-5.344 0-1.007 6.466-7.095 8.272-7.788 2.126-.816 2.246-2.59.228-3.364-.825-.317-1.5-1.148-1.5-1.847 0-.698-.607-1.774-1.348-2.389-1.062-.882-3.474 1.065-11.352 9.162M33.2 144.2c-1.954 1.954-1.483 7.578.734 8.765 2.739 1.466 5.615 1.283 7.052-.448 1.055-1.271.681-1.449-2.628-1.25-3.672.222-3.858.088-3.858-2.767s.186-2.989 3.858-2.767c3.309.199 3.683.021 2.628-1.25-1.481-1.784-6.117-1.952-7.786-.283m16.8 4.3c0 3.025.45 5.5 1 5.5s1-.9 1-2c0-2.643 1.396-2.536 3.269.25.832 1.238 1.851 1.923 2.264 1.524.414-.399.212-1.376-.448-2.171-.934-1.126-.93-1.878.015-3.392 1.924-3.08.464-5.211-3.569-5.211H50zm16 0v5.5h3.559c2.118 0 3.309-.405 2.941-1-.34-.55-1.491-1-2.559-1-2.639 0-2.464-2.05.235-2.756l2.177-.569-2.26-.836c-2.78-1.029-2.279-3.051.981-3.962 2.014-.562 1.789-.695-1.324-.777L66 143zm16.171-.25c-2.03 5.413-2.015 6.994.046 4.933.651-.651 2.128-1.183 3.283-1.183s2.632.532 3.283 1.183c2.056 2.056 2.044.486-.036-4.933-1.108-2.887-2.598-5.25-3.311-5.25s-2.182 2.363-3.265 5.25m17.079-4.17c1.252.729 1.75 2.286 1.75 5.47 0 2.447.45 4.45 1 4.45s1-2.217 1-4.927c0-3.851.382-5.026 1.75-5.384.963-.251-.275-.496-2.75-.543-3.509-.066-4.115.139-2.75.934m14.866 4.67c.123 6.103.565 5.505 1.108-1.5.181-2.338-.021-4.25-.448-4.25s-.724 2.588-.66 5.75m8.885-5.583c0 .183.854 2.583 1.896 5.333 2.594 6.84 4.323 6.851 6.831.043 1.449-3.934 1.686-5.543.815-5.543-.675 0-1.766 1.8-2.425 4-1.489 4.971-2.498 5.06-3.692.326-.509-2.021-1.488-3.858-2.176-4.083-.687-.225-1.25-.26-1.249-.076M141 148.5v5.5h3.559c2.118 0 3.309-.405 2.941-1-.34-.55-1.491-1-2.559-1-2.758 0-2.457-2.985.309-3.063l2.25-.064-2.25-.904c-3.128-1.258-2.835-3.747.5-4.253 2.212-.335 2.016-.446-1-.566L141 143zm-89-2c0 .833.889 1.5 2 1.5s2-.667 2-1.5-.889-1.5-2-1.5-2 .667-2 1.5m32.682.152c-1.231 1.23-.713 3.348.818 3.348 1.666 0 1.874-.862.666-2.765-.441-.696-1.109-.958-1.484-.583"/></svg>